<svg xmlns="http://www.w3.org/2000/svg" xmlns:xlink="http://www.w3.org/1999/xlink" xmlns:xodm="http://www.corel.com/coreldraw/odm/2003"><defs><symbol viewBox="0 0 26 9" fill="none" id="icon-arrow">
<path d="M19.9899 4.5L-1.14441e-05 4.5" stroke="currentColor" />
<path d="M26 4.5L19.25 8.39711L19.25 0.602886L26 4.5Z" fill="currentColor" />
</symbol><symbol viewBox="0 0 9 15" fill="none" id="icon-arrow-2">
<rect x="1.41422" y="14.1421" width="2" height="10" transform="rotate(-135 1.41422 14.1421)" fill="#003882" />
<path d="M0.000152588 1.41406L1.41437 -0.000151277L8.48543 7.07092L7.07122 8.48513L0.000152588 1.41406Z" fill="#003882" />
</symbol><symbol viewBox="0 0 48 48" fill="none" id="icon-burger-menu">
<rect width="48" height="48" fill="white" fill-opacity="0.01" />
<path d="M7.94977 11.9498H39.9498" stroke="white" stroke-width="4" stroke-linecap="round" stroke-linejoin="round" />
<path d="M7.94977 23.9498H39.9498" stroke="white" stroke-width="4" stroke-linecap="round" stroke-linejoin="round" />
<path d="M7.94977 35.9498H39.9498" stroke="white" stroke-width="4" stroke-linecap="round" stroke-linejoin="round" />
</symbol><symbol viewBox="0 0 92.53 122.88" id="icon-city"><defs><style>#icon-city .cls-1{fill-rule:evenodd;}</style></defs><title>map-pin-point</title><path class="cls-1" d="M46.27,24.08A22.75,22.75,0,1,1,23.52,46.83,22.75,22.75,0,0,1,46.27,24.08Zm1.36,91.62A82.87,82.87,0,0,0,64,101.81,85.44,85.44,0,0,0,84.56,62.23c2.81-13.67,1.5-27-4.75-37.34a36.74,36.74,0,0,0-6.63-8.06C65.62,9.93,57,6.64,48.23,6.56,39.07,6.49,29.77,10,21.55,16.5a38.54,38.54,0,0,0-8.63,9.56C7.15,35.15,5.41,46.43,7.31,58.24c1.94,12,7.66,24.61,16.77,36A102.46,102.46,0,0,0,47.63,115.7Zm21.24-9.46a89.32,89.32,0,0,1-19.33,16,3.28,3.28,0,0,1-3.71.13,109.25,109.25,0,0,1-26.9-24c-9.8-12.31-16-26-18.1-39.1C-1.33,45.89.7,33,7.36,22.53a45.3,45.3,0,0,1,10.1-11.18C26.85,3.87,37.6-.09,48.29,0,58.6.09,68.79,3.92,77.6,12a43.1,43.1,0,0,1,7.82,9.52c7.15,11.8,8.71,26.83,5.57,42.05a92.2,92.2,0,0,1-22.12,42.7Z" /></symbol><symbol viewBox="0 0 512.000000 512.000000" preserveAspectRatio="xMidYMid meet" id="icon-consultation">

<g transform="translate(0.000000,512.000000) scale(0.100000,-0.100000)" fill="#000000" stroke="none">
<path d="M430 5022 c-165 -44 -295 -177 -335 -343 -13 -55 -15 -227 -15 -1254
0 -1300 -1 -1259 58 -1369 35 -65 123 -153 188 -188 58 -31 159 -58 222 -58
l42 0 0 -162 c0 -179 6 -212 49 -280 44 -70 104 -101 206 -106 94 -5 155 11
227 58 26 17 130 129 243 260 l198 230 1141 2 1141 3 58 23 c129 52 246 176
284 300 17 53 18 140 18 1287 0 1196 -1 1232 -20 1290 -41 127 -153 245 -282
297 l-58 23 -1650 2 c-1528 2 -1655 1 -1715 -15z m3387 -171 c65 -29 134 -101
159 -166 18 -48 19 -91 19 -1260 0 -1169 -1 -1212 -19 -1260 -25 -65 -94 -137
-159 -166 l-52 -24 -1162 -5 c-928 -4 -1165 -8 -1175 -18 -7 -7 -107 -122
-223 -255 -228 -263 -257 -287 -341 -287 -55 0 -87 20 -105 67 -5 13 -9 114
-9 223 0 127 -4 208 -11 224 -16 35 -49 44 -169 49 -88 3 -113 8 -155 29 -65
33 -127 100 -151 164 -18 47 -19 93 -19 1259 0 1166 1 1212 19 1259 21 56 84
129 130 153 82 43 36 42 1741 40 l1630 -2 52 -24z" />
<path d="M1549 4420 c-383 -59 -569 -463 -444 -965 24 -97 189 -577 254 -740
82 -206 171 -287 316 -289 148 -2 249 95 304 294 28 98 7 144 -64 144 -47 0
-62 -17 -86 -98 -42 -142 -97 -198 -177 -177 -87 24 -101 52 -293 599 -102
291 -130 411 -131 562 -1 130 14 204 58 296 67 141 185 216 340 217 100 0 155
-23 209 -89 l36 -44 -48 0 c-54 -1 -77 -14 -92 -53 -12 -31 -2 -65 25 -87 28
-24 286 -18 388 9 106 28 148 54 238 150 89 95 123 112 222 113 205 0 335
-109 392 -332 13 -52 15 -94 11 -210 -7 -177 -17 -220 -139 -565 -158 -452
-181 -505 -240 -548 -36 -27 -99 -27 -135 -1 -39 28 -57 69 -97 221 -39 145
-68 212 -118 269 -61 69 -160 94 -212 53 -53 -42 -18 -139 52 -139 53 0 78
-41 117 -194 40 -155 77 -237 136 -301 56 -61 118 -89 194 -89 106 1 198 61
260 172 67 120 294 766 324 925 25 130 28 322 6 425 -56 266 -230 438 -481
473 -148 20 -265 -24 -396 -149 -96 -91 -113 -102 -165 -102 -48 0 -78 20
-148 97 -114 126 -254 178 -416 153z" />
<path d="M4323 3834 c-21 -21 -24 -32 -20 -62 11 -63 20 -66 195 -73 129 -4
165 -9 203 -26 66 -30 124 -86 156 -151 l28 -57 0 -1220 0 -1220 -24 -53 c-32
-71 -115 -147 -183 -167 -29 -8 -90 -15 -139 -15 -98 0 -131 -11 -148 -47 -7
-15 -11 -98 -11 -221 0 -216 -8 -253 -60 -280 -38 -20 -123 -10 -164 19 -18
13 -127 132 -241 264 -114 132 -217 245 -229 252 -16 9 -286 12 -1163 13
-1129 0 -1143 0 -1197 21 -107 40 -179 138 -195 264 -6 53 -13 72 -31 87 -56
45 -130 3 -130 -74 0 -155 108 -331 246 -401 118 -60 55 -57 1278 -57 l1121
-1 185 -215 c207 -241 229 -263 303 -301 41 -21 70 -27 137 -31 81 -4 88 -2
150 30 49 25 73 46 97 81 46 69 53 103 53 280 l0 157 54 0 c30 0 83 9 118 20
170 52 295 192 327 365 15 79 15 2380 1 2456 -25 131 -124 266 -239 328 -86
45 -166 61 -319 61 -130 0 -134 -1 -159 -26z" />
</g>
</symbol><symbol viewBox="0 0 512.000000 512.000000" preserveAspectRatio="xMidYMid meet" id="icon-diagnostic">

<g transform="translate(0.000000,512.000000) scale(0.100000,-0.100000)" fill="#000000" stroke="none">
<path d="M2190 5024 c-110 -28 -218 -91 -300 -173 -127 -128 -190 -282 -190
-465 0 -138 28 -235 114 -406 159 -312 174 -404 150 -890 -5 -96 -6 -256 -3
-355 5 -156 9 -187 28 -231 78 -178 310 -224 446 -89 49 50 70 99 89 214 9 52
28 128 42 170 32 100 148 334 187 378 92 105 264 106 352 2 37 -44 146 -265
184 -372 17 -49 40 -134 51 -189 24 -114 44 -159 92 -205 75 -72 210 -98 301
-59 55 24 127 94 150 145 30 68 42 314 28 571 -27 494 -10 599 144 905 91 181
115 266 115 409 0 180 -52 321 -162 441 -135 148 -289 215 -492 215 -121 0
-188 -16 -319 -80 -118 -57 -166 -69 -262 -70 -89 0 -147 16 -265 73 -52 25
-123 53 -156 61 -77 20 -249 20 -324 0z m301 -150 c29 -9 89 -34 133 -56 207
-104 420 -104 625 1 107 55 170 71 272 71 228 0 415 -138 480 -352 18 -57 20
-87 17 -176 -6 -127 -16 -159 -109 -344 -82 -164 -122 -278 -145 -413 -14 -86
-15 -138 -8 -365 13 -382 7 -636 -14 -679 -25 -50 -60 -73 -116 -73 -85 0
-113 34 -140 172 -27 134 -70 252 -156 426 -70 142 -87 168 -139 217 -161 149
-394 139 -544 -23 -100 -108 -236 -421 -271 -624 -22 -127 -56 -169 -137 -168
-49 1 -83 21 -106 65 -16 29 -18 63 -17 327 0 162 2 376 5 475 6 272 -26 406
-157 661 -88 171 -114 257 -114 369 0 146 47 262 145 360 61 61 156 116 231
134 65 15 205 13 265 -5z" />
<path d="M2301 4699 c-93 -18 -195 -102 -238 -196 -22 -49 -25 -65 -21 -141 4
-74 9 -98 39 -157 40 -82 71 -105 116 -83 15 7 34 25 41 40 12 25 10 35 -18
97 -22 50 -30 85 -30 125 0 50 4 60 37 97 42 46 73 64 127 74 46 9 76 39 76
77 0 27 -30 68 -49 68 -5 0 -15 2 -23 4 -7 2 -33 0 -57 -5z" />
<path d="M2905 3770 c-31 -12 -48 -38 -48 -71 0 -50 27 -67 123 -78 47 -5 108
-17 135 -26 106 -36 221 -119 279 -204 47 -68 110 -72 145 -9 14 24 14 30 -1
61 -21 44 -116 147 -177 192 -68 49 -157 91 -242 114 -87 23 -186 33 -214 21z" />
<path d="M100 2330 c-20 -20 -20 -27 -20 -1118 0 -1052 1 -1100 18 -1115 17
-15 57 -17 378 -17 358 0 359 0 411 24 97 46 165 138 179 245 4 28 8 51 9 51
1 0 116 -27 256 -59 384 -90 431 -96 729 -96 268 0 335 6 540 52 226 49 461
138 670 254 52 29 439 250 860 492 502 288 780 453 808 481 24 22 56 64 70 91
24 45 27 61 27 150 0 89 -3 106 -27 150 -32 62 -104 130 -165 157 -58 26 -149
34 -208 19 -26 -6 -349 -125 -718 -263 -370 -138 -679 -252 -687 -255 -12 -3
-15 7 -16 50 -3 123 -67 242 -167 311 -102 70 -97 70 -637 76 l-485 5 -65 32
c-117 58 -173 68 -380 67 -166 0 -195 -3 -280 -26 -52 -15 -102 -29 -112 -33
-13 -5 -17 2 -23 37 -16 94 -86 187 -174 230 -45 22 -55 23 -408 26 -353 3
-363 2 -383 -18z m740 -152 c18 -13 43 -36 54 -51 21 -28 21 -31 21 -912 0
-881 0 -884 -21 -912 -11 -15 -36 -38 -54 -50 -32 -23 -39 -23 -321 -23 l-289
0 0 985 0 985 289 0 c282 0 289 0 321 -22z m825 -223 c39 -8 106 -32 150 -54
l80 -40 490 -3 c476 -3 491 -4 535 -24 197 -93 186 -377 -17 -450 -30 -10
-172 -13 -691 -14 l-653 0 -24 -25 c-32 -31 -32 -69 0 -100 l24 -25 659 0
c573 0 665 2 713 16 66 19 110 46 169 100 53 49 17 35 715 294 297 111 611
228 698 261 171 64 209 69 273 40 113 -51 142 -218 51 -298 -26 -23 -1449
-847 -1687 -977 -162 -88 -421 -180 -622 -220 -169 -34 -291 -46 -470 -46
-215 0 -349 19 -690 97 l-298 68 0 667 0 666 81 27 c44 15 113 33 152 40 98
18 277 18 362 0z" />
<path d="M473 695 c-29 -20 -37 -59 -19 -94 19 -37 32 -41 122 -41 66 0 78 3
99 25 30 30 32 64 4 99 -19 24 -26 26 -103 26 -56 0 -88 -5 -103 -15z" />
</g>
</symbol><symbol viewBox="0 0 25 19" fill="none" id="icon-eye">
    <path d="M1.19995 9.6001L0.457169 9.30299C0.380879 9.49371 0.380879 9.70648 0.457169 9.89721L1.19995 9.6001ZM23.5999 9.6001L24.3427 9.89721C24.419 9.70648 24.419 9.49371 24.3427 9.30298L23.5999 9.6001ZM12.3999 16.8001C8.69751 16.8001 6.09773 14.9573 4.39457 13.0649C3.54244 12.1181 2.92493 11.1686 2.52097 10.4557C2.31944 10.1 2.1723 9.80551 2.0767 9.60271C2.02892 9.50138 1.99411 9.42314 1.97189 9.37186C1.96078 9.34622 1.95282 9.32734 1.94798 9.31569C1.94556 9.30987 1.94391 9.30586 1.94304 9.30372C1.9426 9.30265 1.94236 9.30205 1.94231 9.30193C1.94228 9.30186 1.94231 9.30192 1.94238 9.3021C1.94241 9.30218 1.9425 9.30241 1.94252 9.30245C1.94262 9.3027 1.94273 9.30299 1.19995 9.6001C0.457169 9.89721 0.457307 9.89755 0.457456 9.89792C0.457523 9.89809 0.457686 9.8985 0.457819 9.89883C0.458085 9.89949 0.458401 9.90027 0.458767 9.90118C0.459499 9.90299 0.460431 9.90529 0.461563 9.90807C0.463828 9.91362 0.466895 9.92108 0.470772 9.9304C0.478524 9.94903 0.489515 9.97507 0.503796 10.008C0.532354 10.0739 0.574102 10.1676 0.629454 10.285C0.740098 10.5197 0.905462 10.8501 1.12893 11.2445C1.57496 12.0316 2.25745 13.0821 3.2053 14.1353C5.10213 16.2429 8.10234 18.4001 12.3999 18.4001V16.8001ZM1.19995 9.6001C1.94273 9.89721 1.94262 9.89749 1.94252 9.89774C1.9425 9.89779 1.94241 9.89801 1.94238 9.8981C1.94231 9.89827 1.94228 9.89833 1.94231 9.89827C1.94236 9.89814 1.9426 9.89754 1.94304 9.89647C1.94391 9.89433 1.94556 9.89032 1.94798 9.8845C1.95282 9.87286 1.96078 9.85397 1.97189 9.82834C1.99411 9.77705 2.02892 9.69882 2.0767 9.59748C2.1723 9.39468 2.31944 9.10015 2.52097 8.74451C2.92493 8.03163 3.54244 7.08209 4.39457 6.13527C6.09773 4.24287 8.69751 2.4001 12.3999 2.4001V0.800098C8.10234 0.800098 5.10213 2.95733 3.2053 5.06493C2.25745 6.1181 1.57496 7.16857 1.12893 7.95569C0.905462 8.35004 0.740098 8.68051 0.629454 8.91521C0.574102 9.03263 0.532354 9.12627 0.503796 9.19217C0.489515 9.22513 0.478524 9.25117 0.470772 9.2698C0.466895 9.27911 0.463828 9.28657 0.461563 9.29213C0.460431 9.2949 0.459499 9.2972 0.458767 9.29901C0.458401 9.29992 0.458085 9.3007 0.457819 9.30137C0.457686 9.3017 0.457523 9.3021 0.457456 9.30227C0.457307 9.30264 0.457169 9.30299 1.19995 9.6001ZM12.3999 2.4001C16.1023 2.4001 18.7021 4.24287 20.4053 6.13527C21.2574 7.08209 21.875 8.03163 22.2789 8.74451C22.4805 9.10015 22.6276 9.39469 22.7232 9.59748C22.771 9.69882 22.8058 9.77706 22.828 9.82834C22.8391 9.85398 22.8471 9.87286 22.8519 9.8845C22.8543 9.89032 22.856 9.89433 22.8569 9.89647C22.8573 9.89754 22.8575 9.89814 22.8576 9.89827C22.8576 9.89833 22.8576 9.89828 22.8575 9.8981C22.8575 9.89801 22.8574 9.89779 22.8574 9.89775C22.8573 9.89749 22.8572 9.89721 23.5999 9.6001C24.3427 9.30298 24.3426 9.30264 24.3424 9.30226C24.3424 9.3021 24.3422 9.30169 24.3421 9.30136C24.3418 9.3007 24.3415 9.29992 24.3411 9.29901C24.3404 9.2972 24.3395 9.2949 24.3383 9.29212C24.3361 9.28657 24.333 9.27911 24.3291 9.26979C24.3214 9.25116 24.3104 9.22512 24.2961 9.19216C24.2675 9.12626 24.2258 9.03262 24.1704 8.91521C24.0598 8.68051 23.8944 8.35004 23.671 7.95569C23.2249 7.16856 22.5424 6.1181 21.5946 5.06492C19.6977 2.95733 16.6975 0.800098 12.3999 0.800098V2.4001ZM23.5999 9.6001C22.8572 9.30298 22.8573 9.3027 22.8574 9.30245C22.8574 9.3024 22.8575 9.30218 22.8575 9.30209C22.8576 9.30192 22.8576 9.30186 22.8576 9.30192C22.8575 9.30205 22.8573 9.30265 22.8569 9.30372C22.856 9.30586 22.8543 9.30987 22.8519 9.31569C22.8471 9.32733 22.8391 9.34622 22.828 9.37185C22.8058 9.42314 22.771 9.50137 22.7232 9.60271C22.6276 9.80551 22.4805 10.1 22.2789 10.4557C21.875 11.1686 21.2574 12.1181 20.4053 13.0649C18.7021 14.9573 16.1023 16.8001 12.3999 16.8001V18.4001C16.6975 18.4001 19.6977 16.2429 21.5946 14.1353C22.5424 13.0821 23.2249 12.0316 23.671 11.2445C23.8944 10.8502 24.0598 10.5197 24.1704 10.285C24.2258 10.1676 24.2675 10.0739 24.2961 10.008C24.3104 9.97507 24.3214 9.94903 24.3291 9.9304C24.333 9.92109 24.3361 9.91362 24.3383 9.90807C24.3395 9.90529 24.3404 9.903 24.3411 9.90118C24.3415 9.90028 24.3418 9.89949 24.3421 9.89883C24.3422 9.8985 24.3424 9.89809 24.3424 9.89793C24.3426 9.89755 24.3427 9.89721 23.5999 9.6001ZM12.4 12.0001C11.0745 12.0001 9.99995 10.9256 9.99995 9.6001H8.39995C8.39995 11.8092 10.1908 13.6001 12.4 13.6001V12.0001ZM14.7999 9.6001C14.7999 10.9256 13.7254 12.0001 12.4 12.0001V13.6001C14.6091 13.6001 16.3999 11.8092 16.3999 9.6001H14.7999ZM12.4 7.2001C13.7254 7.2001 14.7999 8.27461 14.7999 9.6001H16.3999C16.3999 7.39096 14.6091 5.6001 12.4 5.6001V7.2001ZM12.4 5.6001C10.1908 5.6001 8.39995 7.39096 8.39995 9.6001H9.99995C9.99995 8.27461 11.0745 7.2001 12.4 7.2001V5.6001Z" fill="#222222" />
</symbol><symbol viewBox="0 0 30 30" id="icon-facebook">
<path d="M26.25 0H3.75C1.68187 0 0 1.68187 0 3.75V26.25C0 28.3181 1.68187 30 3.75 30H26.25C28.3181 30 30 28.3181 30 26.25V3.75C30 1.68187 28.3181 0 26.25 0Z" />
<path d="M25.3125 15H20.625V11.25C20.625 10.215 21.465 10.3125 22.5 10.3125H24.375V5.625H20.625C17.5181 5.625 15 8.14313 15 11.25V15H11.25V19.6875H15V30H20.625V19.6875H23.4375L25.3125 15Z" fill="#003882" />
</symbol><symbol viewBox="0 0 512.000000 512.000000" preserveAspectRatio="xMidYMid meet" id="icon-implantation">

<g transform="translate(0.000000,512.000000) scale(0.100000,-0.100000)" fill="#000000" stroke="none">
<path d="M1560 5106 c-209 -39 -376 -126 -528 -276 -111 -110 -209 -284 -253
-450 -32 -119 -32 -338 -1 -455 60 -224 263 -900 279 -928 25 -44 94 -77 159
-77 l53 0 10 -52 c6 -29 17 -89 25 -133 19 -102 27 -124 62 -156 51 -47 63
-49 258 -49 170 0 186 -1 186 -17 0 -10 11 -112 25 -228 25 -214 25 -224 -13
-225 -26 0 -90 -40 -120 -74 -73 -83 -67 -201 14 -283 44 -43 92 -63 156 -63
36 0 37 -1 42 -42 19 -140 22 -179 15 -184 -5 -3 -31 -12 -59 -20 -244 -73
-192 -414 63 -414 l54 0 12 -100 c6 -56 11 -106 11 -113 0 -7 -22 -19 -48 -26
-60 -15 -116 -60 -143 -114 -17 -32 -20 -54 -17 -108 3 -58 8 -74 34 -106 45
-55 105 -86 170 -86 62 0 59 4 69 -107 11 -119 38 -168 110 -201 36 -17 71
-19 375 -19 305 0 339 2 376 19 46 21 78 57 93 104 8 25 61 440 61 477 0 4 21
13 46 19 142 36 210 132 184 258 -10 44 -21 64 -55 99 -25 25 -60 48 -85 55
-34 10 -40 16 -36 33 2 12 10 71 16 131 l12 111 63 18 c111 32 174 108 175
209 0 26 -6 63 -14 81 -20 48 -78 102 -128 118 -49 17 -47 3 -25 177 l12 94
53 18 c74 25 106 52 136 111 32 64 33 122 4 184 -21 47 -81 99 -124 110 -19 5
-22 11 -17 42 2 21 6 43 9 50 2 9 48 12 184 12 267 0 281 11 325 248 l27 142
52 0 c72 0 135 33 162 85 26 48 268 867 289 978 36 189 -1 443 -88 599 -36 65
-102 68 -136 6 -14 -25 -14 -31 8 -80 68 -154 95 -329 72 -474 -8 -52 -178
-655 -267 -946 -5 -17 -57 -18 -899 -18 -643 0 -901 -3 -919 -11 -51 -23 -55
-103 -7 -128 13 -8 269 -11 800 -11 l780 0 -6 -32 c-2 -18 -12 -71 -21 -118
l-17 -85 -1095 0 -1095 0 -20 115 -21 115 218 5 c187 4 220 7 238 22 30 26 27
81 -6 107 -26 20 -38 21 -359 21 l-332 0 -123 418 c-146 496 -147 502 -156
617 -23 327 172 649 478 789 118 54 196 70 338 70 109 0 144 -5 276 -37 241
-59 333 -70 564 -70 231 0 320 11 563 69 134 33 168 37 282 38 106 0 144 -4
208 -22 98 -28 215 -86 291 -146 72 -55 113 -61 145 -20 32 40 26 63 -28 115
-102 98 -288 185 -465 215 -117 21 -261 13 -411 -22 -220 -51 -293 -63 -437
-76 -230 -19 -400 -1 -733 76 -137 32 -308 41 -415 22z m1597 -2632 c-3 -31
-7 -57 -9 -58 -6 -5 -1114 -299 -1127 -300 -12 -1 -20 39 -37 189 -13 105 -23
198 -23 208 -1 16 34 17 600 17 l602 0 -6 -56z m143 -204 c25 -25 26 -62 1
-84 -11 -10 -124 -46 -258 -82 -199 -53 -242 -68 -260 -89 -28 -32 -29 -55 -2
-89 27 -34 52 -34 195 5 64 17 117 29 119 27 5 -6 -25 -231 -32 -239 -4 -4
-226 -65 -493 -136 l-485 -130 -7 43 c-3 24 -9 76 -13 116 l-7 73 242 65 c134
35 253 73 266 83 47 37 20 127 -38 127 -12 0 -168 -39 -345 -86 -349 -94 -365
-95 -379 -39 -14 55 7 67 238 129 117 31 436 117 708 191 272 73 503 134 513
134 9 1 26 -8 37 -19z m-56 -696 c24 -23 20 -71 -6 -88 -25 -16 -1287 -356
-1321 -356 -53 0 -78 76 -34 104 28 19 1270 354 1314 355 17 1 39 -6 47 -15z
m-241 -431 c-8 -65 -18 -121 -21 -124 -12 -11 -813 -222 -819 -216 -4 5 -33
219 -29 223 3 4 853 232 867 233 14 1 14 -10 2 -116z m166 -287 c12 -25 11
-31 -6 -55 -18 -24 -73 -40 -592 -179 -545 -146 -574 -153 -597 -137 -28 18
-34 75 -10 94 24 20 1107 309 1151 308 33 -2 42 -7 54 -31z m-239 -318 c0 -33
-39 -361 -45 -375 -3 -10 -77 -13 -324 -13 -296 0 -320 1 -325 17 -9 30 -27
195 -22 200 5 6 684 191 704 192 6 1 12 -9 12 -21z" />
<path d="M1920 4660 c-30 -30 -27 -85 6 -106 31 -21 184 -59 329 -81 150 -23
460 -23 610 0 151 23 315 64 337 84 24 22 24 85 0 106 -21 19 -71 22 -122 7
-86 -25 -245 -51 -377 -62 -204 -17 -480 9 -663 62 -55 16 -98 12 -120 -10z" />
</g>
</symbol><symbol viewBox="0 0 30 30" id="icon-linkedin">
<path d="M27.2863 0H2.71374C1.215 0 0 1.215 0 2.71374V27.2862C0 28.785 1.215 30 2.71374 30H27.2862C28.785 30 30 28.785 30 27.2862V2.71374C30 1.215 28.785 0 27.2863 0ZM9.28327 25.904C9.28327 26.3402 8.92971 26.6937 8.49353 26.6937H5.13181C4.69563 26.6937 4.34207 26.3402 4.34207 25.904V11.8118C4.34207 11.3756 4.69563 11.022 5.13181 11.022H8.49353C8.92971 11.022 9.28327 11.3756 9.28327 11.8118V25.904ZM6.81267 9.69361C5.04887 9.69361 3.61901 8.26374 3.61901 6.49995C3.61901 4.73615 5.04887 3.30628 6.81267 3.30628C8.57647 3.30628 10.0063 4.73615 10.0063 6.49995C10.0063 8.26374 8.57654 9.69361 6.81267 9.69361ZM26.8516 25.9676C26.8516 26.3686 26.5264 26.6937 26.1254 26.6937H22.5181C22.1171 26.6937 21.7919 26.3686 21.7919 25.9676V19.3575C21.7919 18.3715 22.0812 15.0365 19.215 15.0365C16.9918 15.0365 16.5408 17.3192 16.4503 18.3436V25.9676C16.4503 26.3686 16.1252 26.6937 15.7242 26.6937H12.2352C11.8342 26.6937 11.5091 26.3686 11.5091 25.9676V11.7481C11.5091 11.3471 11.8342 11.022 12.2352 11.022H15.7242C16.1252 11.022 16.4503 11.3471 16.4503 11.7481V12.9776C17.2747 11.7404 18.4998 10.7855 21.1083 10.7855C26.8846 10.7855 26.8516 16.1821 26.8516 19.1472V25.9676Z" />
</symbol><symbol fill-rule="evenodd" viewBox="0 0 508 512.06" id="icon-phone">
 <g id="icon-phone_Layer_x0020_1">
  <metadata id="icon-phone_CorelCorpID_0Corel-Layer"></metadata>
  <path fill="black" fill-rule="nonzero" d="M123.43 249.39c15.07,27.16 32.42,53.26 54.98,77.05 22.61,23.95 50.71,45.72 87.14,64.3 2.7,1.32 5.27,1.32 7.55,0.42 3.46,-1.33 6.99,-4.18 10.47,-7.67 2.7,-2.69 6.04,-6.99 9.56,-11.7 13.99,-18.44 31.34,-41.29 55.81,-29.86 0.54,0.25 0.95,0.53 1.49,0.78l81.66 46.96c0.22,0.12 0.53,0.42 0.77,0.53 10.78,7.41 15.2,18.84 15.32,31.76 0,13.18 -4.85,27.98 -11.96,40.5 -9.4,16.5 -23.27,27.43 -39.25,34.69 -15.2,7 -32.13,10.75 -48.4,13.15 -25.55,3.77 -49.47,1.37 -73.94,-6.16 -23.94,-7.42 -48.03,-19.63 -74.37,-35.89l-1.95 -1.25c-12.07,-7.52 -25.12,-15.61 -37.91,-25.13 -46.91,-35.4 -94.65,-86.48 -125.74,-142.71 -26.08,-47.2 -40.32,-98.15 -32.53,-146.73 4.3,-26.63 15.72,-50.84 35.63,-66.82 17.35,-13.98 40.74,-21.64 71.01,-18.96 3.48,0.23 6.58,2.27 8.19,5.24l52.33 88.5c7.67,9.93 8.61,19.75 4.44,29.58 -3.49,8.09 -10.47,15.5 -20.04,22.46 -2.82,2.4 -6.18,4.84 -9.69,7.4 -11.71,8.5 -25,18.3 -20.45,29.85l-0.12 -0.29zm97.51 -42.25c-8.08,-2.08 -12.94,-10.35 -10.85,-18.43 2.09,-8.08 10.35,-12.94 18.43,-10.85 24.51,6.39 47.56,19.66 66.21,37.07 18.76,17.52 33.31,39.41 40.66,62.88 2.48,7.99 -1.98,16.49 -9.96,18.97 -7.98,2.49 -16.49,-1.97 -18.97,-9.95 -5.75,-18.37 -17.33,-35.69 -32.36,-49.73 -15.15,-14.15 -33.68,-24.88 -53.16,-29.96zm2.01 -92.74c-8.25,-1.4 -13.79,-9.24 -12.39,-17.49 1.39,-8.24 9.24,-13.79 17.48,-12.39 46.21,8 90.08,31.46 125.25,64.38 35.19,32.92 61.82,75.41 73.53,121.46 2.06,8.12 -2.85,16.38 -10.97,18.44 -8.12,2.06 -16.38,-2.85 -18.44,-10.97 -10.3,-40.48 -33.75,-77.89 -64.75,-106.89 -30.93,-28.95 -69.38,-49.55 -109.71,-56.54zm9.74 -84.19c-8.31,-0.95 -14.28,-8.47 -13.33,-16.78 0.95,-8.31 8.46,-14.29 16.77,-13.34 64.65,7.57 125.4,37.22 173.49,80.81 48.21,43.69 83.83,101.51 98.02,165.22 1.8,8.14 -3.35,16.22 -11.5,18.02 -8.14,1.8 -16.22,-3.35 -18.02,-11.5 -12.8,-57.45 -45.05,-109.73 -88.77,-149.34 -43.53,-39.45 -98.4,-66.28 -156.66,-73.09z" />
 </g>
</symbol><symbol viewBox="0 0 512.000000 512.000000" preserveAspectRatio="xMidYMid meet" id="icon-prosthetics">

<g transform="translate(0.000000,512.000000) scale(0.100000,-0.100000)" fill="#000000" stroke="none">
<path d="M2255 4494 c-615 -27 -1125 -98 -1665 -234 -254 -64 -359 -96 -382
-117 -15 -14 -18 -32 -18 -117 0 -149 20 -255 116 -637 85 -335 88 -348 93
-491 6 -137 8 -148 30 -172 l24 -26 2107 0 2107 0 24 26 c22 23 24 35 30 172
5 143 8 157 93 491 96 382 116 488 116 637 0 122 -2 125 -122 160 -497 147
-1117 256 -1668 294 -160 11 -743 20 -885 14z m880 -174 c530 -39 1032 -124
1525 -258 l105 -29 3 -38 c7 -79 -24 -243 -99 -528 l-10 -37 -55 60 c-38 40
-78 70 -122 92 -62 31 -73 33 -172 33 -97 0 -110 -2 -171 -31 -36 -18 -87 -52
-113 -76 l-46 -45 -46 45 c-26 24 -77 58 -113 76 -61 29 -74 31 -171 31 -93 0
-112 -3 -161 -26 -31 -15 -75 -43 -97 -63 l-40 -37 -31 44 c-60 88 -169 163
-272 186 -160 37 -345 -21 -451 -142 l-36 -42 -46 48 c-145 151 -359 190 -543
100 -67 -33 -133 -90 -174 -150 l-31 -44 -40 37 c-22 20 -66 48 -97 62 -49 23
-69 27 -161 27 -97 0 -110 -2 -171 -31 -36 -18 -87 -52 -113 -76 l-46 -45 -46
45 c-26 24 -77 58 -113 76 -61 29 -74 31 -171 31 -99 0 -110 -2 -172 -33 -44
-22 -84 -52 -122 -92 l-55 -60 -10 37 c-72 272 -101 423 -101 518 l0 44 68 20
c492 146 1154 253 1746 281 207 10 778 4 971 -10z m-828 -778 c65 -34 110 -78
140 -140 28 -57 28 -57 31 -299 l3 -243 -301 0 -301 0 3 253 c3 237 4 254 25
293 29 54 112 128 166 148 60 22 179 16 234 -12z m736 12 c57 -19 140 -92 170
-148 21 -39 22 -56 25 -293 l3 -253 -300 0 -301 0 0 223 c0 247 7 293 60 365
75 104 219 148 343 106z m-2152 -106 c51 -15 114 -69 142 -122 20 -38 22 -57
25 -253 l3 -213 -251 0 -252 0 4 208 c3 175 7 212 22 242 65 125 179 177 307
138z m705 -24 c62 -38 109 -112 117 -186 4 -29 7 -126 7 -215 l0 -163 -251 0
-250 0 3 213 c3 240 10 264 87 328 54 46 95 59 172 56 54 -2 76 -8 115 -33z
m2135 24 c51 -15 114 -69 142 -122 20 -38 22 -57 25 -253 l3 -213 -251 0 -252
0 4 208 c3 175 7 212 22 242 65 125 179 177 307 138z m705 -24 c62 -38 109
-112 117 -186 4 -29 7 -126 7 -215 l0 -163 -251 0 -250 0 3 213 c3 240 10 264
87 328 54 46 95 59 172 56 54 -2 76 -8 115 -33z" />
<path d="M548 2406 c-29 -21 -38 -63 -38 -170 l0 -103 -106 -249 c-165 -386
-200 -514 -211 -754 -7 -164 -11 -158 138 -201 522 -151 1085 -249 1664 -290
219 -16 911 -16 1130 0 578 41 1125 136 1665 290 144 41 144 40 137 206 -11
234 -49 369 -211 749 l-106 249 0 103 c0 107 -9 149 -38 170 -25 20 -3999 20
-4024 0z m620 -358 c-3 -241 -9 -263 -88 -330 -137 -118 -361 -44 -399 132 -6
28 -11 132 -11 230 l0 180 251 0 250 0 -3 -212z m650 -6 l-3 -219 -30 -49
c-57 -91 -172 -134 -281 -105 -55 15 -122 75 -150 135 -23 48 -24 62 -24 254
l0 202 246 0 245 0 -3 -218z m660 6 c-3 -197 -5 -216 -25 -254 -91 -170 -331
-179 -429 -16 -38 63 -44 106 -44 320 l0 162 251 0 250 0 -3 -212z m662 50 c0
-214 -6 -257 -44 -320 -98 -163 -338 -154 -429 16 -20 38 -22 57 -25 254 l-3
212 250 0 251 0 0 -162z m650 -40 c0 -192 -1 -206 -24 -254 -28 -60 -95 -120
-150 -135 -109 -29 -224 14 -281 105 l-30 49 -3 219 -3 218 245 0 246 0 0
-202z m658 -5 c-3 -204 -4 -209 -31 -260 -93 -178 -345 -177 -440 1 -20 38
-22 57 -25 254 l-3 212 251 0 252 0 -4 -207z m-3810 -436 c26 -26 76 -62 112
-80 60 -30 72 -32 170 -32 97 0 110 2 172 32 37 17 87 52 112 76 l45 45 47
-45 c158 -152 416 -149 568 6 l40 41 53 -51 c29 -27 79 -62 110 -77 51 -24 70
-27 163 -27 97 0 110 2 171 31 36 18 87 52 113 76 l46 45 46 -45 c26 -24 77
-58 113 -76 61 -29 74 -31 171 -31 98 0 110 2 170 32 36 18 85 52 109 77 l44
45 58 -54 c83 -76 146 -99 275 -100 96 0 103 2 176 37 44 22 91 55 112 78 l36
40 45 -46 c25 -25 76 -60 113 -77 62 -30 75 -32 172 -32 98 0 110 2 170 32 76
37 147 106 189 182 l30 55 26 -59 c88 -200 144 -406 148 -546 l2 -82 -50 -14
c-457 -123 -876 -204 -1295 -247 -608 -64 -1294 -57 -1895 19 -350 45 -814
140 -1109 226 l-69 21 7 82 c13 156 67 350 151 541 l26 59 30 -55 c16 -30 51
-76 77 -102z" />
</g>
</symbol><symbol viewBox="0 0 18 18" id="icon-search">
<path d="M13 7C13 10.3137 10.3137 13 7 13C3.68629 13 1 10.3137 1 7C1 3.68629 3.68629 1 7 1C10.3137 1 13 3.68629 13 7Z" fill="none" stroke-width="2" />
<rect x="10" y="11.4142" width="2" height="8" rx="1" transform="rotate(-45 10 11.4142)" />
</symbol><symbol viewBox="0 0 141 27" fill="none" id="icon-slider-arrow">
<path d="M117.005 13.981L1.45435e-05 13.981" stroke="white" stroke-width="2" />
<path d="M117.982 2.66836L138.898 13.981L117.982 25.2936L117.982 2.66836Z" stroke="white" stroke-width="2" />
</symbol><symbol viewBox="0 0 122.88 109.45" id="icon-street"><defs><style>#icon-street .cls-1{fill-rule:evenodd;}</style></defs><title>office-address</title><path class="cls-1" d="M49,76.93A47.76,47.76,0,0,1,37.49,99.08a46.14,46.14,0,0,1-9.89,8.21,3.45,3.45,0,0,1-3.91.14A56,56,0,0,1,9.83,95.06,44.45,44.45,0,0,1,.44,74.72C-.71,67.62.38,60.76,4,55.15a24.51,24.51,0,0,1,5.44-6A26.2,26.2,0,0,1,25.9,43.08a23.48,23.48,0,0,1,15.83,6.43A23.38,23.38,0,0,1,46,54.66c3.81,6.3,4.66,14.26,3,22.27Zm-8,29.09h78.51V32.12H88.54V106H85.11V3.43H32.85v33.2h-.11l-.05,0h-.16l-.05,0h-.21l-.06,0h-.1l-.11,0h-.16l-.06,0H29.42V18h0V3A3,3,0,0,1,30.3.89h0A3,3,0,0,1,32.43,0h53.1a3,3,0,0,1,2.13.88l.12.14a3,3,0,0,1,.76,2V28.69h31.82a2.47,2.47,0,0,1,1.77.74h0a2.47,2.47,0,0,1,.74,1.77v76.53a1.71,1.71,0,0,1-1.72,1.71H37.1l0,0,.08-.07.09-.07.08-.07.09-.07.06-.05,0,0,0,0,.06,0,0,0,0,0,0,0h0l.05,0,0,0,0,0,.06,0h0l0,0,.05,0h0l.06,0,0,0,0,0,.06,0h0l0,0,0,0h0l.06-.05h0l0,0,0,0h0l0,0,0,0,0,0,0,0h0l0,0,0,0h0l0-.05,0,0,0,0,0,0h0l.06,0,0,0h0l.05,0,0,0,0,0,.05,0h0l.06-.05,0,0,0,0,.06,0h0l0,0,0,0h0l.06,0,0,0,0,0,.05,0h0l0,0,0,0h0l0,0,0,0,0,0,0,0h0L40,107l.11-.09v0l0,0,0,0h0l.06,0,0,0,0,0,0,0h0l0,0,0,0h0l0,0,0,0,0,0,0,0h0l.05-.05,0,0v0l0,0h0l0,0,0,0h0l.05-.05,0,0,0,0ZM56.08,60.54h4a.59.59,0,0,1,.59.59v9.53a.6.6,0,0,1-.59.59H57A41.14,41.14,0,0,0,56.7,64c-.15-1.15-.36-2.29-.62-3.41Zm-.4,19.71h4.38a.59.59,0,0,1,.58.59v9.53a.58.58,0,0,1-.58.59h-8.3a53.08,53.08,0,0,0,3.92-10.71Zm-5-39.42h9.4a.58.58,0,0,1,.58.58v9.53a.58.58,0,0,1-.58.59h-7.5l-.38-.64a34,34,0,0,0-2.11-3.1V41.41a.58.58,0,0,1,.59-.58Zm17,39.42H77a.59.59,0,0,1,.58.59v9.53A.58.58,0,0,1,77,91h-9.4a.58.58,0,0,1-.59-.59V80.84a.59.59,0,0,1,.59-.59Zm0-19.71H77a.58.58,0,0,1,.58.59v9.53a.59.59,0,0,1-.58.59h-9.4a.59.59,0,0,1-.59-.59V61.13a.58.58,0,0,1,.59-.59Zm0-19.71H77a.58.58,0,0,1,.58.58v9.53a.58.58,0,0,1-.58.59h-9.4a.58.58,0,0,1-.59-.59V41.41a.58.58,0,0,1,.59-.58Zm30,30.57h13.6c.16,0,.29.1.29.2v5.59c0,.1-.15.21-.29.21H97.6c-.14,0-.29-.1-.29-.21V71.6c0-.11.13-.2.29-.2ZM40.53,10.89h36.9a1.39,1.39,0,0,1,1.38,1.37V26.85a1.39,1.39,0,0,1-1.38,1.37H40.53a1.39,1.39,0,0,1-1.38-1.37V12.26a1.38,1.38,0,0,1,1.38-1.37ZM97.6,59.17h13.6c.16,0,.29.11.29.21V65c0,.1-.15.21-.29.21H97.6c-.14,0-.29-.1-.29-.21V59.38c0-.12.13-.21.29-.21ZM97.6,47h13.6c.16,0,.29.11.29.21v5.58c0,.1-.15.21-.29.21H97.6c-.14,0-.29-.09-.29-.21V47.16c0-.12.13-.21.29-.21ZM24.88,56.89A11.35,11.35,0,1,1,13.54,68.24,11.35,11.35,0,0,1,24.88,56.89Z" /></symbol><symbol viewBox="0 0 512.000000 512.000000" preserveAspectRatio="xMidYMid meet" id="icon-surgery">

<g transform="translate(0.000000,512.000000) scale(0.100000,-0.100000)" fill="#000000" stroke="none">
<path d="M2526 4998 c-96 -18 -192 -72 -270 -150 -100 -100 -156 -226 -156
-348 0 -51 13 -70 46 -70 31 0 40 16 52 97 18 129 75 226 175 300 224 164 543
76 658 -182 16 -37 23 -76 27 -147 5 -105 -9 -165 -55 -244 -30 -53 -117 -135
-171 -163 -50 -25 -144 -51 -188 -51 -66 0 -64 16 -64 -481 l0 -449 -89 0
c-82 0 -91 -2 -105 -22 -14 -20 -16 -177 -16 -1480 l0 -1458 21 -21 c20 -20
29 -21 125 -17 90 4 111 9 168 37 79 39 147 111 175 187 21 54 21 67 21 1402
0 1035 -3 1351 -12 1360 -8 8 -45 12 -100 12 l-88 0 0 418 0 418 58 11 c189
35 361 202 407 394 88 375 -242 719 -619 647z m262 -3290 l-3 -1313 -29 -53
c-49 -88 -123 -131 -228 -132 l-58 0 0 1405 0 1405 160 0 160 0 -2 -1312z" />
<path d="M1171 4924 c-80 -21 -147 -61 -222 -131 -110 -104 -163 -230 -162
-388 1 -264 177 -464 456 -520 l27 -5 0 -385 0 -385 -93 0 c-59 0 -97 -4 -105
-12 -9 -9 -12 -352 -12 -1483 0 -1715 -19 -1511 137 -1503 172 9 272 67 335
196 l33 67 3 1354 c2 999 -1 1357 -9 1367 -8 10 -38 14 -105 14 l-94 0 0 385
0 385 28 5 c219 44 364 167 433 365 29 86 31 230 5 310 -33 98 -76 168 -145
233 -76 71 -143 110 -226 132 -73 19 -212 18 -284 -1z m231 -85 c217 -46 361
-237 345 -459 -7 -103 -46 -189 -122 -269 -91 -96 -198 -137 -338 -129 -187
10 -344 139 -392 323 -80 308 197 600 507 534z m68 -3129 c0 -1089 -2 -1316
-14 -1344 -38 -90 -137 -156 -238 -156 l-58 0 0 1405 0 1405 155 0 155 0 0
-1310z" />
<path d="M3566 4814 c-20 -20 -20 -48 0 -65 9 -7 154 -86 322 -175 169 -89
307 -166 307 -171 0 -6 -98 -104 -217 -218 l-218 -209 0 -433 0 -433 -93 0
c-59 0 -97 -4 -105 -12 -9 -9 -12 -353 -12 -1484 0 -1371 1 -1474 17 -1490 25
-24 196 -15 276 15 73 29 149 101 185 178 l27 58 3 1354 c2 1000 -1 1357 -9
1367 -8 10 -38 14 -105 14 l-94 0 0 409 0 409 236 227 c129 126 239 237 245
247 6 11 6 24 0 36 -10 18 -711 392 -736 392 -7 0 -21 -7 -29 -16z m394 -3104
c0 -1089 -2 -1316 -14 -1344 -38 -90 -137 -156 -238 -156 l-58 0 0 1405 0
1405 155 0 155 0 0 -1310z" />
</g>
</symbol><symbol viewBox="0 0 512.000000 512.000000" preserveAspectRatio="xMidYMid meet" id="icon-teeth-decoration">

<g transform="translate(0.000000,512.000000) scale(0.100000,-0.100000)" fill="#000000" stroke="none">
<path d="M3859 4650 c-35 -66 -67 -120 -72 -120 -4 0 -18 7 -31 15 -12 8 -60
29 -105 45 -303 111 -671 66 -1036 -126 -124 -65 -202 -86 -320 -86 -118 0
-197 21 -320 86 -382 202 -788 240 -1099 102 -242 -108 -391 -333 -437 -662
-11 -76 -10 -87 5 -102 31 -31 50 -4 63 92 19 132 40 201 90 306 37 77 60 109
123 173 64 64 94 85 171 121 137 64 222 81 404 80 227 -1 389 -41 595 -147
180 -92 235 -109 375 -114 161 -7 221 9 410 102 254 126 391 160 640 159 144
0 169 -3 248 -27 70 -22 178 -67 195 -82 2 -2 -17 -41 -42 -87 l-45 -83 -235
-124 c-129 -69 -237 -130 -240 -137 -9 -24 21 -44 239 -159 121 -63 226 -122
233 -129 8 -7 67 -114 132 -237 65 -123 125 -228 134 -234 23 -14 34 1 122
167 43 81 80 146 82 144 6 -7 -57 -221 -125 -421 -36 -104 -138 -386 -228
-625 -89 -239 -169 -457 -178 -485 -10 -34 -17 -113 -21 -250 -21 -702 -166
-1182 -409 -1349 -43 -30 -64 -38 -100 -38 -63 0 -105 25 -128 76 -10 23 -62
211 -114 417 -110 429 -183 657 -260 814 -84 171 -189 275 -280 275 -86 0
-184 -93 -263 -247 -88 -173 -135 -318 -262 -813 -109 -423 -123 -466 -170
-498 -29 -20 -44 -23 -92 -20 -47 3 -65 11 -110 45 -177 134 -305 454 -362
908 -20 154 -36 398 -36 530 0 83 -6 127 -30 220 -36 140 -44 157 -73 153 -30
-4 -28 -45 6 -173 19 -71 27 -123 27 -185 0 -47 5 -159 10 -250 30 -476 114
-835 252 -1067 48 -82 160 -197 221 -228 69 -34 136 -34 206 1 31 16 61 40 72
58 29 46 69 181 144 476 115 460 183 672 265 829 110 210 213 246 322 110 113
-142 199 -383 357 -997 49 -192 100 -371 112 -397 32 -67 83 -98 170 -103 59
-4 74 -1 117 23 283 154 454 670 478 1443 l7 197 174 465 c269 717 393 1107
393 1237 l0 40 226 119 c124 65 230 126 234 134 5 9 5 22 1 29 -5 7 -113 68
-240 135 l-233 122 -123 235 c-155 294 -146 289 -236 119z m202 -202 l107
-203 206 -109 c114 -60 203 -113 199 -117 -5 -5 -98 -55 -207 -113 l-199 -104
-106 -202 c-58 -110 -110 -202 -114 -203 -5 -1 -57 90 -116 202 l-109 203
-198 105 c-110 57 -203 108 -207 112 -4 5 84 56 197 115 235 123 196 81 347
371 45 86 84 154 87 151 3 -3 54 -97 113 -208z" />
<path d="M802 3594 c-14 -25 -3 -62 149 -514 280 -829 271 -805 299 -805 19 0
26 6 28 25 2 14 -76 257 -173 540 -97 283 -193 571 -214 640 -31 104 -41 126
-58 128 -12 2 -25 -4 -31 -14z" />
<path d="M474 3376 c-3 -9 9 -62 28 -118 27 -82 38 -104 54 -106 44 -6 46 19
10 129 -31 94 -36 104 -60 107 -17 2 -28 -2 -32 -12z" />
<path d="M686 2773 c-3 -10 11 -63 32 -118 33 -90 40 -100 62 -100 37 0 36 27
-3 136 -29 84 -36 94 -59 97 -18 2 -28 -2 -32 -15z" />
</g>
</symbol><symbol viewBox="0 0 122.88 122.88" id="icon-timing"><title>time-clock</title><path d="M61.44,0A61.46,61.46,0,1,1,18,18,61.23,61.23,0,0,1,61.44,0ZM64.6,55.18a7.05,7.05,0,0,1,2.91,2.74h9.9a2.71,2.71,0,0,1,.34-2.68,2.68,2.68,0,0,1,3.74-.48l5.89,4.55a2.64,2.64,0,0,1,1,2.08h0v.06h0a2.65,2.65,0,0,1-1,2.09l-5.89,4.54A2.66,2.66,0,0,1,77.41,65H67.5a7,7,0,1,1-10-9.35l.08-13.54A2.66,2.66,0,0,1,54.48,38l4.67-5.78a2.67,2.67,0,0,1,2-1h.06a2.65,2.65,0,0,1,2.2,1.08l4.41,6a2.66,2.66,0,0,1-3.13,4.05L64.6,55.18Zm22,43.94a3,3,0,0,1-5.12,3l-2.21-3.82a3,3,0,0,1,5.12-3l2.21,3.83ZM36.27,23.75a3,3,0,0,1,5.12-2.94l2.21,3.82a3,3,0,1,1-5.12,2.94l-2.21-3.82Zm65.8,57.74a3,3,0,1,1-2.94,5.12L95.31,84.4a3,3,0,0,1,2.94-5.12l3.82,2.21ZM20.8,41.39a3,3,0,1,1,3-5.12l3.83,2.21a3,3,0,0,1-3,5.12L20.8,41.39Zm85.86,17.08a3,3,0,0,1,0,5.93h-4.42a3,3,0,0,1,0-5.93ZM16.22,64.41a3,3,0,1,1,0-5.93h4.42a3,3,0,0,1,0,5.93ZM99.13,36.27a3,3,0,0,1,2.94,5.12L98.25,43.6a3,3,0,0,1-2.94-5.12l3.82-2.21ZM23.75,86.61a3,3,0,1,1-2.94-5.12l3.82-2.21a3,3,0,0,1,2.94,5.12l-3.82,2.21Zm57.74-65.8a3,3,0,0,1,5.12,2.94L84.4,27.57a3,3,0,1,1-5.12-2.94l2.21-3.82Zm-40.1,81.27a3,3,0,0,1-5.12-3l2.21-3.83a3,3,0,0,1,5.12,3l-2.21,3.82ZM58.47,16.22a3,3,0,0,1,5.93,0v4.42a3,3,0,0,1-5.93,0V16.22Zm5.93,90.44a3,3,0,1,1-5.93,0v-4.42a3,3,0,0,1,5.93,0v4.42ZM100,22.89a54.51,54.51,0,1,0,16,38.55,54.37,54.37,0,0,0-16-38.55Z" /></symbol><symbol viewBox="0 0 512.000000 512.000000" preserveAspectRatio="xMidYMid meet" id="icon-treatment">

<g transform="translate(0.000000,512.000000) scale(0.100000,-0.100000)" fill="#000000" stroke="none">
<path d="M733 4675 c-136 -42 -228 -152 -278 -331 -22 -80 -31 -318 -16 -411
17 -100 59 -181 135 -262 84 -90 79 -68 117 -466 19 -206 55 -312 128 -378 48
-43 107 -61 170 -52 114 17 187 91 285 291 37 76 77 152 88 167 19 27 21 27
39 11 10 -9 53 -87 96 -173 63 -128 87 -166 133 -213 92 -91 198 -111 296 -53
98 58 141 182 164 475 13 179 28 276 47 314 8 15 41 57 73 91 104 112 133 201
133 415 0 359 -143 573 -394 588 -123 7 -210 -25 -380 -141 -129 -88 -155
-100 -197 -93 -20 3 -84 37 -147 80 -132 87 -201 124 -270 142 -63 17 -167 17
-222 -1z m226 -225 c24 -12 91 -54 150 -94 139 -95 203 -119 297 -114 84 6
143 33 297 138 150 102 218 120 296 80 49 -24 74 -56 103 -128 19 -50 22 -76
23 -217 0 -189 -7 -212 -100 -316 -99 -110 -116 -163 -141 -444 -17 -202 -30
-286 -49 -331 -29 -69 -56 -41 -157 163 -104 212 -177 283 -289 283 -115 0
-186 -66 -280 -260 -34 -69 -75 -146 -91 -172 -67 -106 -95 -43 -123 269 -29
324 -43 374 -137 479 -82 93 -106 148 -114 260 -14 199 36 363 126 412 54 29
123 26 189 -8z" />
<path d="M3130 4662 c-38 -38 -42 -74 -38 -330 l3 -214 38 -34 37 -34 -26
-104 -26 -104 -116 -4 c-85 -4 -131 -11 -169 -25 -109 -43 -201 -134 -247
-246 l-21 -52 -3 -1350 c-1 -905 1 -1366 8 -1400 31 -150 134 -266 279 -315
61 -20 74 -20 799 -18 l737 3 66 32 c84 42 160 118 202 202 l32 66 3 1377 c2
1373 2 1378 -19 1440 -24 72 -62 130 -118 181 -79 71 -153 97 -300 106 l-115
6 -26 106 -27 105 29 17 c15 9 33 28 38 42 14 37 13 490 -1 518 -30 58 -12 57
-522 57 l-469 0 -28 -28z m820 -287 l0 -105 -320 0 -320 0 0 105 0 105 320 0
320 0 0 -105z m-58 -430 l25 -105 -288 0 c-159 0 -289 3 -289 6 0 6 16 72 41
167 l10 37 237 0 238 0 26 -105z m484 -350 c37 -23 56 -44 77 -84 25 -51 27
-63 27 -183 l0 -128 -855 0 -855 0 0 113 c0 61 4 129 9 150 18 76 79 137 156
156 24 6 316 9 716 8 l676 -2 49 -30z m104 -1460 l0 -855 -855 0 -855 0 0 848
c0 467 3 852 7 855 3 4 388 7 855 7 l848 0 0 -855z m0 -1197 c0 -107 -4 -141
-19 -173 -23 -51 -79 -101 -128 -114 -25 -7 -273 -11 -714 -11 l-675 0 -55 28
c-40 20 -61 39 -83 75 -27 44 -29 56 -34 172 -2 68 -2 131 1 139 6 14 94 16
857 16 l850 0 0 -132z" />
<path d="M3540 2761 c-116 -36 -200 -129 -225 -251 l-12 -55 -44 -6 c-69 -10
-135 -46 -187 -103 -56 -63 -82 -129 -82 -213 0 -157 106 -283 261 -314 l57
-11 4 -43 c7 -59 44 -131 91 -178 93 -93 233 -118 355 -63 95 44 159 126 183
235 10 50 11 50 62 61 112 24 187 84 235 189 74 160 -9 358 -178 422 -27 10
-63 19 -79 19 -29 0 -40 18 -41 65 0 38 -49 125 -95 169 -58 57 -134 86 -218
85 -34 0 -73 -4 -87 -8z m139 -215 c38 -20 51 -55 51 -137 0 -134 36 -169 176
-169 73 0 77 -1 110 -34 46 -46 48 -104 5 -147 -28 -27 -34 -29 -113 -29 -146
0 -176 -32 -177 -183 -1 -73 -3 -81 -30 -108 -32 -32 -79 -38 -126 -17 -40 18
-55 57 -55 143 0 131 -36 165 -176 165 -74 0 -77 1 -111 35 -32 32 -35 40 -30
77 3 25 15 51 31 67 23 22 36 26 118 31 146 9 161 23 168 161 4 78 9 102 25
119 36 41 86 50 134 26z" />
<path d="M1262 1539 c-71 -12 -149 -50 -206 -100 l-47 -41 -102 -4 c-224 -7
-366 -85 -440 -242 -30 -63 -32 -74 -32 -177 0 -125 13 -161 82 -227 92 -88
210 -121 443 -123 l165 -2 63 -61 c38 -37 89 -74 130 -94 62 -31 74 -33 167
-33 95 0 103 2 163 34 76 42 153 123 202 215 34 63 37 66 80 72 341 46 493
220 406 466 -47 133 -119 223 -218 274 -44 23 -69 28 -148 32 -83 4 -105 1
-175 -23 -44 -14 -99 -38 -123 -51 -42 -25 -44 -25 -69 -7 -60 42 -81 54 -128
72 -64 24 -146 31 -213 20z m158 -224 c15 -8 51 -41 80 -75 48 -55 55 -60 93
-60 34 0 57 10 117 50 96 64 165 90 240 90 55 0 63 -3 100 -36 80 -72 114
-198 67 -242 -36 -34 -130 -63 -249 -76 -59 -7 -114 -19 -124 -26 -9 -8 -34
-51 -55 -96 -46 -96 -115 -178 -165 -194 -27 -9 -47 -9 -86 1 -52 12 -80 36
-194 163 l-32 35 -179 -6 c-288 -10 -394 25 -393 129 1 51 21 111 47 140 49
55 184 85 311 70 93 -11 127 1 166 57 38 53 72 80 117 91 42 11 102 4 139 -15z" />
</g>
</symbol><symbol viewBox="0 0 512.000000 512.000000" preserveAspectRatio="xMidYMid meet" id="icon-whitening">

<g transform="translate(0.000000,512.000000) scale(0.100000,-0.100000)" fill="#000000" stroke="none">
<path d="M995 4997 c-56 -22 -76 -38 -106 -85 -70 -111 -14 -266 111 -303 l39
-12 3 -228 c3 -212 4 -230 24 -255 49 -66 123 -90 186 -60 31 15 37 15 64 1
37 -19 75 -19 119 -1 31 13 39 13 70 0 43 -18 76 -18 119 0 30 12 40 12 80 -2
43 -16 49 -16 91 -1 41 15 49 15 88 1 53 -19 106 -10 148 25 54 46 59 70 59
308 l0 215 57 0 57 0 170 -169 c136 -134 179 -171 211 -180 28 -8 365 -11
1141 -11 935 0 1103 2 1120 14 15 12 19 25 17 71 -4 115 -87 236 -201 292
l-57 28 -935 3 -934 3 -171 168 c-135 135 -178 171 -210 180 -58 16 -1319 14
-1360 -2z m1507 -284 l179 -178 952 -5 952 -5 47 -28 c48 -28 80 -64 98 -111
l10 -26 -1062 0 -1061 0 -182 180 -182 180 -612 0 -612 0 -24 25 c-34 33 -34
87 0 120 l24 25 647 0 648 0 178 -177z m-1274 -324 c-3 -185 -5 -213 -20 -222
-12 -8 -21 -7 -32 2 -14 12 -16 44 -16 222 l0 209 35 0 35 0 -2 -211z m182 2
c0 -173 -3 -211 -15 -221 -12 -10 -18 -10 -30 0 -12 10 -15 48 -15 221 l0 209
30 0 30 0 0 -209z m188 -2 c-3 -185 -5 -213 -20 -222 -12 -8 -21 -7 -32 2 -14
12 -16 44 -16 222 l0 209 35 0 35 0 -2 -211z m182 2 c0 -173 -3 -211 -15 -221
-12 -10 -18 -10 -30 0 -12 10 -15 48 -15 221 l0 209 30 0 30 0 0 -209z m188
-2 c-3 -185 -5 -213 -20 -222 -12 -8 -21 -7 -32 2 -14 12 -16 44 -16 222 l0
209 35 0 35 0 -2 -211z" />
<path d="M838 4253 c-9 -10 -19 -36 -23 -58 -4 -21 -13 -51 -20 -65 -22 -43
-91 -98 -137 -110 -62 -17 -90 -32 -99 -56 -14 -39 11 -66 77 -84 103 -28 157
-86 184 -198 8 -30 18 -46 36 -54 34 -16 72 3 79 39 25 116 81 183 172 208 80
22 88 27 91 64 4 41 -11 59 -57 67 -48 9 -100 36 -135 70 -32 32 -65 98 -66
129 0 55 -68 87 -102 48z m87 -264 l42 -41 -44 -45 -44 -44 -44 44 -43 44 41
41 c23 23 44 42 46 42 2 0 23 -19 46 -41z" />
<path d="M1505 3959 c-114 -42 -166 -169 -114 -277 37 -76 139 -124 218 -102
168 45 207 253 66 352 -46 32 -122 44 -170 27z m110 -134 c64 -63 -5 -161 -85
-120 -52 27 -52 106 0 132 37 19 58 16 85 -12z" />
<path d="M635 3596 c-74 -33 -116 -119 -95 -196 35 -130 195 -168 285 -69 40
45 49 74 42 135 -12 108 -131 175 -232 130z m103 -118 c31 -31 -6 -96 -47 -83
-12 3 -26 15 -32 26 -23 43 44 92 79 57z" />
<path d="M3223 3525 c-13 -9 -25 -32 -29 -53 -17 -94 -89 -172 -177 -192 -59
-14 -87 -34 -87 -62 0 -39 19 -56 74 -68 99 -20 158 -80 190 -192 13 -47 21
-59 42 -64 45 -12 71 9 83 67 6 29 20 67 31 85 33 53 114 104 165 104 32 0 65
33 65 63 0 30 -25 53 -70 62 -93 20 -160 82 -186 173 -15 54 -43 92 -68 92 -6
0 -21 -7 -33 -15z m75 -356 l-43 -44 -43 44 -42 45 42 43 42 43 44 -43 43 -43
-43 -45z" />
<path d="M1160 3516 c-73 -15 -137 -54 -193 -116 -39 -43 -87 -137 -87 -169 0
-5 -18 -12 -40 -16 -61 -10 -154 -61 -195 -107 -48 -52 -87 -138 -93 -203 -3
-33 -13 -60 -29 -79 -39 -47 -93 -162 -114 -244 -43 -167 -7 -472 89 -759 27
-80 37 -122 30 -130 -24 -30 -111 -74 -174 -89 -66 -16 -104 -41 -104 -69 0
-28 37 -57 84 -66 149 -28 257 -130 295 -279 21 -84 35 -102 75 -98 30 3 31 1
39 -47 4 -27 11 -198 15 -380 9 -380 10 -385 107 -473 95 -87 222 -105 340
-48 69 35 169 141 217 231 61 117 70 159 77 375 7 185 8 198 34 246 84 163
285 203 421 83 80 -70 90 -104 97 -329 5 -175 8 -202 32 -268 36 -102 81 -175
157 -252 87 -89 141 -114 245 -115 65 0 89 5 129 24 63 31 116 84 147 147 23
48 24 57 30 369 6 264 11 339 28 432 29 155 78 310 156 498 78 187 105 265
140 402 37 146 43 218 20 243 -22 25 -57 26 -78 2 -8 -9 -25 -62 -36 -118 -32
-156 -66 -265 -141 -444 -86 -210 -114 -287 -144 -408 -49 -193 -58 -272 -65
-598 l-6 -311 -28 -42 c-46 -69 -123 -95 -212 -70 -58 16 -155 119 -198 211
-47 98 -57 154 -57 321 -1 212 -23 281 -125 383 -44 45 -76 67 -120 83 -206
78 -414 -7 -508 -208 -31 -65 -31 -70 -38 -266 -7 -210 -11 -230 -64 -335 -37
-73 -126 -165 -181 -186 -84 -32 -172 -3 -225 74 -24 35 -24 39 -30 356 -7
316 -16 418 -52 573 l-15 62 38 44 c45 51 138 103 201 113 62 9 89 28 89 64 0
38 -21 57 -72 65 -148 24 -283 154 -304 296 -16 109 -113 120 -128 14 -4 -24
-11 -47 -15 -50 -18 -10 -81 249 -102 418 -25 204 4 343 97 474 81 113 199
188 345 219 101 22 166 14 388 -45 239 -64 320 -75 490 -68 119 5 158 11 316
52 258 68 310 77 386 70 139 -13 246 -62 346 -161 56 -55 81 -88 109 -150 21
-43 44 -87 52 -96 18 -21 51 -23 77 -4 29 21 22 68 -25 163 -34 71 -59 104
-125 170 -68 67 -99 89 -176 126 -52 25 -119 51 -149 58 -63 15 -191 18 -267
6 -38 -5 -53 -4 -53 4 0 28 -64 142 -107 190 -158 175 -428 215 -624 91 l-45
-29 -53 59 c-60 67 -121 101 -206 117 -68 13 -64 13 -135 -3z m175 -133 c39
-20 93 -71 111 -105 13 -25 11 -32 -21 -95 -19 -37 -38 -85 -41 -105 -4 -21
-8 -38 -10 -38 -2 0 -46 11 -97 24 -74 19 -101 32 -132 61 -22 20 -64 48 -92
62 -29 14 -53 27 -53 29 0 19 37 85 63 112 74 77 183 99 272 55z m662 -85 c68
-25 154 -103 187 -170 40 -80 39 -82 -71 -111 -54 -15 -132 -32 -173 -38 -89
-14 -310 -6 -390 14 -52 12 -55 14 -52 42 5 48 50 131 97 179 103 106 256 138
402 84z m-1047 -202 c0 -2 -33 -14 -72 -26 -40 -12 -95 -33 -123 -47 l-50 -25
25 27 c36 40 116 75 173 75 26 0 47 -2 47 -4z m-228 -1414 c18 -29 96 -106
136 -132 22 -15 22 -15 -33 -57 -30 -24 -71 -65 -91 -93 l-36 -50 -36 49 c-21
27 -59 67 -85 89 -27 22 -49 43 -48 46 0 4 22 24 50 46 27 21 64 59 82 84 18
25 35 46 39 46 3 0 13 -13 22 -28z" />
<path d="M2838 2446 c-25 -13 -27 -18 -53 -207 -21 -155 -60 -291 -138 -479
-84 -202 -81 -192 -56 -223 24 -31 59 -35 81 -9 17 19 124 271 156 367 69 204
115 501 84 538 -18 21 -47 26 -74 13z" />
<path d="M2531 1421 c-11 -11 -25 -45 -32 -76 -13 -57 -13 -58 15 -81 15 -13
31 -24 35 -24 22 0 56 41 68 81 17 60 16 76 -7 99 -25 25 -54 26 -79 1z" />
</g>
</symbol><symbol viewBox="0 0 512.000000 512.000000" preserveAspectRatio="xMidYMid meet" id="icon-whitening-1">

<g transform="translate(0.000000,512.000000) scale(0.100000,-0.100000)" fill="#000000" stroke="none">
<path d="M640 5089 c-118 -23 -229 -112 -283 -227 -29 -62 -32 -75 -32 -168 0
-99 1 -104 40 -180 l40 -79 -18 -70 c-35 -135 -4 -302 76 -414 l36 -50 0 -169
c0 -94 5 -210 11 -259 35 -282 140 -624 276 -895 l33 -66 -39 -36 c-52 -47
-89 -65 -158 -77 -99 -17 -103 -19 -116 -50 -29 -68 3 -106 99 -120 155 -22
255 -123 274 -276 6 -51 13 -71 31 -85 53 -43 130 -7 130 63 1 52 15 20 55
-128 77 -281 116 -529 160 -1010 35 -393 61 -510 135 -618 74 -108 169 -150
340 -150 103 0 121 3 170 26 169 81 286 257 373 564 41 147 64 255 117 560 72
417 105 547 150 605 l20 25 20 -25 c45 -57 80 -197 150 -605 82 -479 134 -669
230 -853 55 -105 119 -183 191 -231 77 -52 143 -71 239 -71 198 0 329 87 394
262 38 101 53 199 86 560 30 323 53 507 86 673 23 122 22 119 42 95 9 -11 31
-23 49 -26 27 -5 37 -1 63 24 23 24 30 39 30 71 0 140 124 270 275 287 74 9
105 33 105 83 0 51 -26 72 -101 83 -34 4 -80 16 -103 27 -50 21 -113 74 -121
101 -4 13 31 97 103 247 60 125 122 260 137 298 125 316 185 609 185 898 l0
159 50 45 c73 66 122 169 128 272 2 44 -1 101 -8 129 l-11 50 45 62 c190 258
47 616 -268 671 -111 19 -242 -16 -336 -91 l-39 -31 -59 16 c-33 8 -77 15 -97
15 -21 0 -78 16 -128 36 -138 55 -242 70 -407 56 -213 -18 -303 -45 -525 -158
-238 -121 -260 -128 -405 -128 -145 0 -167 7 -405 128 -219 112 -310 140 -518
158 -206 18 -370 -17 -527 -111 l-65 -39 -46 43 c-99 92 -228 130 -359 104z
m187 -177 c84 -43 131 -119 137 -219 5 -80 10 -88 72 -117 74 -35 144 -103
180 -173 26 -53 29 -67 29 -158 0 -89 -3 -106 -28 -156 -30 -62 -103 -136
-164 -168 -22 -11 -70 -25 -106 -32 -169 -31 -344 78 -397 248 -26 86 -25 139
5 229 14 41 25 85 25 98 0 13 -17 45 -39 71 -66 79 -79 171 -37 261 57 122
206 175 323 116z m826 18 c173 -17 273 -51 475 -161 70 -38 151 -77 180 -86
29 -9 49 -20 45 -24 -11 -10 -136 -38 -221 -49 -41 -6 -82 -15 -92 -20 -28
-15 -40 -61 -25 -97 21 -50 66 -56 225 -27 220 39 499 148 708 276 114 70 233
126 325 152 103 30 295 51 383 41 l61 -6 -72 -72 c-40 -40 -84 -96 -99 -124
-99 -197 -64 -432 89 -587 86 -87 172 -129 305 -147 74 -11 75 -11 128 -70 39
-42 74 -69 129 -96 71 -35 81 -37 171 -38 l95 0 -6 -165 c-8 -249 -57 -474
-164 -745 -43 -108 -162 -365 -178 -383 -1 -1 -14 2 -29 8 -20 7 -36 6 -61 -4
-35 -15 -40 -24 -50 -101 -19 -141 -130 -255 -263 -271 -91 -11 -122 -33 -122
-87 0 -45 30 -69 101 -79 63 -8 157 -46 177 -71 8 -9 4 -40 -13 -107 -69 -268
-104 -493 -140 -892 -14 -155 -32 -328 -40 -383 -39 -254 -108 -335 -286 -335
-90 0 -157 34 -221 114 -120 150 -190 379 -283 926 -79 466 -116 591 -199 676
-40 40 -60 53 -92 59 -67 11 -116 -9 -167 -65 -77 -86 -116 -220 -192 -670
-96 -565 -177 -819 -305 -950 -62 -64 -101 -82 -185 -88 -175 -11 -254 67
-295 293 -6 33 -24 203 -40 377 -32 347 -57 537 -96 726 -31 150 -95 387 -134
495 -23 63 -27 83 -18 94 22 27 87 53 155 63 54 7 73 14 91 35 51 60 18 110
-86 130 -166 32 -250 114 -277 272 -10 57 -19 82 -35 95 -30 24 -75 23 -101
-3 -11 -11 -22 -19 -24 -17 -1 2 -28 66 -58 143 -78 199 -129 390 -156 590
-11 78 -17 282 -9 291 3 3 32 -4 65 -15 89 -30 175 -36 263 -17 195 41 332
163 396 352 23 71 26 90 21 179 -8 166 -74 297 -198 388 -35 26 -70 52 -76 58
-7 5 -13 27 -13 48 0 35 4 42 48 69 103 67 234 109 342 111 25 0 89 -4 143 -9z
m2942 -14 c50 -21 106 -77 131 -131 51 -109 21 -234 -74 -314 -28 -24 -52 -53
-54 -65 -2 -11 7 -50 20 -86 55 -149 1 -284 -137 -348 -119 -55 -270 0 -332
120 -28 56 -52 66 -144 66 -109 -1 -182 27 -250 96 -77 77 -99 132 -100 241 0
77 4 98 26 146 76 161 261 239 424 179 33 -12 77 -24 97 -27 34 -5 40 -1 90
51 52 53 78 69 143 87 37 10 118 2 160 -15z m-3573 -2544 l57 -58 -58 -60 -58
-60 -59 59 -60 60 56 57 c30 32 57 58 60 59 3 0 31 -26 62 -57z m3155 -318 c2
0 -24 -28 -58 -62 l-61 -61 -59 58 -59 59 58 60 57 59 60 -56 c33 -31 61 -56
62 -57z" />
<path d="M2847 3930 c-20 -16 -27 -32 -32 -78 -9 -79 -56 -173 -109 -217 -54
-44 -99 -63 -172 -71 -68 -8 -104 -37 -104 -82 0 -50 27 -72 103 -82 87 -13
154 -47 205 -105 39 -45 72 -117 72 -159 0 -53 21 -98 52 -111 64 -26 118 22
118 107 0 18 13 60 28 93 48 100 133 160 249 174 74 9 103 32 103 81 0 49 -27
70 -113 85 -155 27 -247 121 -268 274 -7 51 -15 71 -35 89 -31 27 -63 28 -97
2z m109 -505 l-60 -60 -60 59 -61 59 60 58 60 58 60 -57 60 -57 -59 -60z" />
</g>
</symbol><symbol viewBox="0 0 24 30" id="icon-youtube">
<path d="M15.1063 20.6058C15.1054 20.4566 15.0616 20.3013 15.0063 20.1617C14.9325 19.9783 14.7745 19.887 14.5762 19.8677C14.3436 19.8448 14.1575 19.9388 13.989 20.088C13.9214 20.1468 13.8907 20.2346 13.8907 20.2346L13.8942 24.9716V25.0883C13.8942 25.0883 13.9346 25.1427 13.9407 25.1497C14.0776 25.2981 14.2374 25.4157 14.4419 25.4578C14.7789 25.5271 15.0168 25.3867 15.0826 25.0743C15.0993 24.9961 15.1089 24.9154 15.1089 24.8355C15.1107 23.425 15.1133 22.0154 15.1063 20.6058ZM15.1063 20.6058C15.1054 20.4566 15.0616 20.3013 15.0063 20.1617C14.9325 19.9783 14.7745 19.887 14.5762 19.8677C14.3436 19.8448 14.1575 19.9388 13.989 20.088C13.9214 20.1468 13.8907 20.2346 13.8907 20.2346L13.8942 24.9716V25.0883C13.8942 25.0883 13.9346 25.1427 13.9407 25.1497C14.0776 25.2981 14.2374 25.4157 14.4419 25.4578C14.7789 25.5271 15.0168 25.3867 15.0826 25.0743C15.0993 24.9961 15.1089 24.9154 15.1089 24.8355C15.1107 23.425 15.1133 22.0154 15.1063 20.6058ZM20.4103 13.4621C14.8044 13.3419 9.19581 13.3419 3.58899 13.4621C1.64399 13.5034 0.0886841 15.0938 0.0886841 17.0397V25.7957C0.0886841 27.7425 1.64399 29.3329 3.58899 29.3742C9.19581 29.4944 14.8044 29.4944 20.4103 29.3742C22.3562 29.3329 23.9115 27.7425 23.9115 25.7957V17.0397C23.9115 15.0939 22.3562 13.5034 20.4103 13.4621ZM5.23558 26.5937H3.61884V17.4541H1.94504V15.9251H6.91289V17.4505H5.23558V26.5937ZM11.0214 22.8001V26.5944H9.5899V25.7273C9.53812 25.7826 9.50915 25.8124 9.48195 25.8431C9.17387 26.1907 8.82454 26.4803 8.37866 26.6339C8.16099 26.7085 7.93717 26.734 7.70809 26.6945C7.39563 26.6427 7.18585 26.4628 7.05946 26.1784C6.94185 25.916 6.91201 25.6351 6.91113 25.3525C6.90762 24.308 6.90937 18.7802 6.90937 18.7266H8.33741C8.34004 18.7749 8.34531 22.743 8.34619 24.6784C8.34619 24.7837 8.34706 24.8917 8.36813 24.9944C8.42079 25.2542 8.62003 25.3657 8.87018 25.2744C9.15807 25.169 9.3775 24.9707 9.56182 24.7328C9.58903 24.6986 9.58903 24.6371 9.58903 24.588V18.7179L11.0214 18.7144C11.0214 18.7144 11.0214 21.4853 11.0214 22.8001ZM16.4676 25.8361C16.2763 26.4119 15.855 26.705 15.2494 26.6989C14.757 26.6945 14.3576 26.4988 14.0285 26.1415C13.9916 26.102 13.8898 25.9941 13.8898 25.9941V26.5927H12.4556V15.9241H13.8898C13.8898 17.0599 13.8898 19.4358 13.8898 19.4358C13.8898 19.4358 13.9706 19.2743 14.0443 19.191C14.2663 18.9426 14.5367 18.7503 14.8702 18.6661C15.4205 18.5283 16.0551 18.6986 16.3571 19.3419C16.5352 19.722 16.5853 20.1275 16.5853 20.54C16.5879 22.0312 16.5879 23.5225 16.5861 25.0137C16.5853 25.2928 16.5563 25.5685 16.4676 25.8361ZM21.7646 25.536C21.5162 26.2636 21.0028 26.6674 20.2497 26.778C19.7828 26.8464 19.3202 26.8368 18.8822 26.6384C18.2827 26.3681 17.9431 25.8792 17.7974 25.2569C17.7298 24.9673 17.6964 24.6636 17.6929 24.366C17.6815 23.1978 17.6868 22.0287 17.6894 20.8604C17.6903 20.2496 17.836 19.6861 18.2547 19.2182C18.7321 18.6837 19.343 18.4845 20.0408 18.5292C20.2506 18.5424 20.4647 18.5766 20.664 18.6425C21.3425 18.8654 21.7049 19.3736 21.8471 20.0477C21.9016 20.3075 21.9217 20.5769 21.9261 20.8429C21.9375 21.4661 21.9217 22.8397 21.9217 22.8397H19.1754V24.8084C19.1754 25.1621 19.4615 25.4482 19.8152 25.4482C20.1681 25.4482 20.4542 25.1621 20.4542 24.8084V23.7964H21.9296C21.9296 23.7963 21.9516 24.991 21.7646 25.536ZM20.4542 20.5138C20.4542 20.1609 20.1681 19.8739 19.8152 19.8739C19.4615 19.8739 19.1754 20.1609 19.1754 20.5138V21.6188H20.4542V20.5138ZM15.0063 20.1618C14.9325 19.9783 14.7745 19.8871 14.5762 19.8678C14.3436 19.8449 14.1575 19.9388 13.989 20.0881C13.9214 20.1469 13.8907 20.2346 13.8907 20.2346L13.8942 24.9716V25.0884C13.8942 25.0884 13.9346 25.1428 13.9407 25.1498C14.0776 25.2982 14.2374 25.4158 14.4419 25.4579C14.7789 25.5272 15.0168 25.3868 15.0826 25.0743C15.0993 24.9962 15.1089 24.9155 15.1089 24.8356C15.1107 23.4251 15.1133 22.0155 15.1063 20.6059C15.1054 20.4566 15.0616 20.3013 15.0063 20.1618Z" fill-opacity="0.5" />
<path d="M18.6722 3.33728L18.6717 11.2581H17.204L17.2058 10.4072C17.0435 10.567 16.905 10.7163 16.7528 10.8504C16.483 11.0881 16.1774 11.2653 15.8199 11.3352C15.271 11.4426 14.8036 11.2691 14.6285 10.7007C14.5703 10.5113 14.5351 10.3073 14.5336 10.1096V3.33728H15.9902V9.37778C15.9902 9.45782 15.9966 9.53875 16.0107 9.61722C16.0549 9.86614 16.2389 9.98331 16.4786 9.90019C16.7708 9.79908 16.9937 9.59677 17.1829 9.35838C17.2097 9.32432 17.2049 9.26078 17.2049 9.21084V3.33728H18.6722Z" fill-opacity="0.5" />
<path d="M6.53265 4.71372C6.21404 3.37074 5.54654 0.535645 5.54654 0.535645H3.87634C3.87634 0.535645 5.15956 4.7914 5.7334 6.68936C5.75403 6.758 5.76351 6.83252 5.76351 6.9044L5.76289 11.2564H7.30301L7.3024 6.9044C7.3024 6.83252 7.31188 6.758 7.3325 6.68936C7.90635 4.7914 9.18957 0.535645 9.18957 0.535645H7.51937C7.51937 0.535645 6.85178 3.37074 6.53326 4.71372H6.53265Z" fill-opacity="0.5" />
<path d="M11.1997 3.13904C10.0391 3.13904 9.09814 4.07994 9.09814 5.24063V9.35349C9.09814 10.5142 10.0391 11.4551 11.1997 11.4551C12.3604 11.4551 13.3013 10.5142 13.3013 9.35349V5.24063C13.3014 4.07994 12.3604 3.13904 11.1997 3.13904ZM11.8062 9.43652C11.8062 9.77093 11.5341 10.0429 11.1998 10.0429C10.8655 10.0429 10.5934 9.77093 10.5934 9.43652V5.15751C10.5934 4.8231 10.8655 4.5511 11.1998 4.5511C11.5341 4.5511 11.8062 4.82319 11.8062 5.15751V9.43652Z" fill-opacity="0.5" />
</symbol></defs></svg>