<svg xmlns="http://www.w3.org/2000/svg" xmlns:xlink="http://www.w3.org/1999/xlink" xmlns:xodm="http://www.corel.com/coreldraw/odm/2003"><defs><symbol viewBox="0 0 26 9" fill="none" id="icon-arrow">
<path d="M19.9899 4.5L-1.14441e-05 4.5" stroke="currentColor" />
<path d="M26 4.5L19.25 8.39711L19.25 0.602886L26 4.5Z" fill="currentColor" />
</symbol><symbol viewBox="0 0 9 15" fill="none" id="icon-arrow-2">
<rect x="1.41422" y="14.1421" width="2" height="10" transform="rotate(-135 1.41422 14.1421)" fill="#003882" />
<path d="M0.000152588 1.41406L1.41437 -0.000151277L8.48543 7.07092L7.07122 8.48513L0.000152588 1.41406Z" fill="#003882" />
</symbol><symbol viewBox="0 0 48 48" fill="none" id="icon-burger-menu">
<rect width="48" height="48" fill="white" fill-opacity="0.01" />
<path d="M7.94977 11.9498H39.9498" stroke="white" stroke-width="4" stroke-linecap="round" stroke-linejoin="round" />
<path d="M7.94977 23.9498H39.9498" stroke="white" stroke-width="4" stroke-linecap="round" stroke-linejoin="round" />
<path d="M7.94977 35.9498H39.9498" stroke="white" stroke-width="4" stroke-linecap="round" stroke-linejoin="round" />
</symbol><symbol viewBox="0 0 92.53 122.88" id="icon-city"><defs><style>#icon-city .cls-1{fill-rule:evenodd;}</style></defs><title>map-pin-point</title><path class="cls-1" d="M46.27,24.08A22.75,22.75,0,1,1,23.52,46.83,22.75,22.75,0,0,1,46.27,24.08Zm1.36,91.62A82.87,82.87,0,0,0,64,101.81,85.44,85.44,0,0,0,84.56,62.23c2.81-13.67,1.5-27-4.75-37.34a36.74,36.74,0,0,0-6.63-8.06C65.62,9.93,57,6.64,48.23,6.56,39.07,6.49,29.77,10,21.55,16.5a38.54,38.54,0,0,0-8.63,9.56C7.15,35.15,5.41,46.43,7.31,58.24c1.94,12,7.66,24.61,16.77,36A102.46,102.46,0,0,0,47.63,115.7Zm21.24-9.46a89.32,89.32,0,0,1-19.33,16,3.28,3.28,0,0,1-3.71.13,109.25,109.25,0,0,1-26.9-24c-9.8-12.31-16-26-18.1-39.1C-1.33,45.89.7,33,7.36,22.53a45.3,45.3,0,0,1,10.1-11.18C26.85,3.87,37.6-.09,48.29,0,58.6.09,68.79,3.92,77.6,12a43.1,43.1,0,0,1,7.82,9.52c7.15,11.8,8.71,26.83,5.57,42.05a92.2,92.2,0,0,1-22.12,42.7Z" /></symbol><symbol viewBox="0 0 25 19" fill="none" id="icon-eye">
    <path d="M1.19995 9.6001L0.457169 9.30299C0.380879 9.49371 0.380879 9.70648 0.457169 9.89721L1.19995 9.6001ZM23.5999 9.6001L24.3427 9.89721C24.419 9.70648 24.419 9.49371 24.3427 9.30298L23.5999 9.6001ZM12.3999 16.8001C8.69751 16.8001 6.09773 14.9573 4.39457 13.0649C3.54244 12.1181 2.92493 11.1686 2.52097 10.4557C2.31944 10.1 2.1723 9.80551 2.0767 9.60271C2.02892 9.50138 1.99411 9.42314 1.97189 9.37186C1.96078 9.34622 1.95282 9.32734 1.94798 9.31569C1.94556 9.30987 1.94391 9.30586 1.94304 9.30372C1.9426 9.30265 1.94236 9.30205 1.94231 9.30193C1.94228 9.30186 1.94231 9.30192 1.94238 9.3021C1.94241 9.30218 1.9425 9.30241 1.94252 9.30245C1.94262 9.3027 1.94273 9.30299 1.19995 9.6001C0.457169 9.89721 0.457307 9.89755 0.457456 9.89792C0.457523 9.89809 0.457686 9.8985 0.457819 9.89883C0.458085 9.89949 0.458401 9.90027 0.458767 9.90118C0.459499 9.90299 0.460431 9.90529 0.461563 9.90807C0.463828 9.91362 0.466895 9.92108 0.470772 9.9304C0.478524 9.94903 0.489515 9.97507 0.503796 10.008C0.532354 10.0739 0.574102 10.1676 0.629454 10.285C0.740098 10.5197 0.905462 10.8501 1.12893 11.2445C1.57496 12.0316 2.25745 13.0821 3.2053 14.1353C5.10213 16.2429 8.10234 18.4001 12.3999 18.4001V16.8001ZM1.19995 9.6001C1.94273 9.89721 1.94262 9.89749 1.94252 9.89774C1.9425 9.89779 1.94241 9.89801 1.94238 9.8981C1.94231 9.89827 1.94228 9.89833 1.94231 9.89827C1.94236 9.89814 1.9426 9.89754 1.94304 9.89647C1.94391 9.89433 1.94556 9.89032 1.94798 9.8845C1.95282 9.87286 1.96078 9.85397 1.97189 9.82834C1.99411 9.77705 2.02892 9.69882 2.0767 9.59748C2.1723 9.39468 2.31944 9.10015 2.52097 8.74451C2.92493 8.03163 3.54244 7.08209 4.39457 6.13527C6.09773 4.24287 8.69751 2.4001 12.3999 2.4001V0.800098C8.10234 0.800098 5.10213 2.95733 3.2053 5.06493C2.25745 6.1181 1.57496 7.16857 1.12893 7.95569C0.905462 8.35004 0.740098 8.68051 0.629454 8.91521C0.574102 9.03263 0.532354 9.12627 0.503796 9.19217C0.489515 9.22513 0.478524 9.25117 0.470772 9.2698C0.466895 9.27911 0.463828 9.28657 0.461563 9.29213C0.460431 9.2949 0.459499 9.2972 0.458767 9.29901C0.458401 9.29992 0.458085 9.3007 0.457819 9.30137C0.457686 9.3017 0.457523 9.3021 0.457456 9.30227C0.457307 9.30264 0.457169 9.30299 1.19995 9.6001ZM12.3999 2.4001C16.1023 2.4001 18.7021 4.24287 20.4053 6.13527C21.2574 7.08209 21.875 8.03163 22.2789 8.74451C22.4805 9.10015 22.6276 9.39469 22.7232 9.59748C22.771 9.69882 22.8058 9.77706 22.828 9.82834C22.8391 9.85398 22.8471 9.87286 22.8519 9.8845C22.8543 9.89032 22.856 9.89433 22.8569 9.89647C22.8573 9.89754 22.8575 9.89814 22.8576 9.89827C22.8576 9.89833 22.8576 9.89828 22.8575 9.8981C22.8575 9.89801 22.8574 9.89779 22.8574 9.89775C22.8573 9.89749 22.8572 9.89721 23.5999 9.6001C24.3427 9.30298 24.3426 9.30264 24.3424 9.30226C24.3424 9.3021 24.3422 9.30169 24.3421 9.30136C24.3418 9.3007 24.3415 9.29992 24.3411 9.29901C24.3404 9.2972 24.3395 9.2949 24.3383 9.29212C24.3361 9.28657 24.333 9.27911 24.3291 9.26979C24.3214 9.25116 24.3104 9.22512 24.2961 9.19216C24.2675 9.12626 24.2258 9.03262 24.1704 8.91521C24.0598 8.68051 23.8944 8.35004 23.671 7.95569C23.2249 7.16856 22.5424 6.1181 21.5946 5.06492C19.6977 2.95733 16.6975 0.800098 12.3999 0.800098V2.4001ZM23.5999 9.6001C22.8572 9.30298 22.8573 9.3027 22.8574 9.30245C22.8574 9.3024 22.8575 9.30218 22.8575 9.30209C22.8576 9.30192 22.8576 9.30186 22.8576 9.30192C22.8575 9.30205 22.8573 9.30265 22.8569 9.30372C22.856 9.30586 22.8543 9.30987 22.8519 9.31569C22.8471 9.32733 22.8391 9.34622 22.828 9.37185C22.8058 9.42314 22.771 9.50137 22.7232 9.60271C22.6276 9.80551 22.4805 10.1 22.2789 10.4557C21.875 11.1686 21.2574 12.1181 20.4053 13.0649C18.7021 14.9573 16.1023 16.8001 12.3999 16.8001V18.4001C16.6975 18.4001 19.6977 16.2429 21.5946 14.1353C22.5424 13.0821 23.2249 12.0316 23.671 11.2445C23.8944 10.8502 24.0598 10.5197 24.1704 10.285C24.2258 10.1676 24.2675 10.0739 24.2961 10.008C24.3104 9.97507 24.3214 9.94903 24.3291 9.9304C24.333 9.92109 24.3361 9.91362 24.3383 9.90807C24.3395 9.90529 24.3404 9.903 24.3411 9.90118C24.3415 9.90028 24.3418 9.89949 24.3421 9.89883C24.3422 9.8985 24.3424 9.89809 24.3424 9.89793C24.3426 9.89755 24.3427 9.89721 23.5999 9.6001ZM12.4 12.0001C11.0745 12.0001 9.99995 10.9256 9.99995 9.6001H8.39995C8.39995 11.8092 10.1908 13.6001 12.4 13.6001V12.0001ZM14.7999 9.6001C14.7999 10.9256 13.7254 12.0001 12.4 12.0001V13.6001C14.6091 13.6001 16.3999 11.8092 16.3999 9.6001H14.7999ZM12.4 7.2001C13.7254 7.2001 14.7999 8.27461 14.7999 9.6001H16.3999C16.3999 7.39096 14.6091 5.6001 12.4 5.6001V7.2001ZM12.4 5.6001C10.1908 5.6001 8.39995 7.39096 8.39995 9.6001H9.99995C9.99995 8.27461 11.0745 7.2001 12.4 7.2001V5.6001Z" fill="#222222" />
</symbol><symbol viewBox="0 0 30 30" id="icon-facebook">
<path d="M26.25 0H3.75C1.68187 0 0 1.68187 0 3.75V26.25C0 28.3181 1.68187 30 3.75 30H26.25C28.3181 30 30 28.3181 30 26.25V3.75C30 1.68187 28.3181 0 26.25 0Z" />
<path d="M25.3125 15H20.625V11.25C20.625 10.215 21.465 10.3125 22.5 10.3125H24.375V5.625H20.625C17.5181 5.625 15 8.14313 15 11.25V15H11.25V19.6875H15V30H20.625V19.6875H23.4375L25.3125 15Z" fill="#003882" />
</symbol><symbol viewBox="0 0 30 30" id="icon-linkedin">
<path d="M27.2863 0H2.71374C1.215 0 0 1.215 0 2.71374V27.2862C0 28.785 1.215 30 2.71374 30H27.2862C28.785 30 30 28.785 30 27.2862V2.71374C30 1.215 28.785 0 27.2863 0ZM9.28327 25.904C9.28327 26.3402 8.92971 26.6937 8.49353 26.6937H5.13181C4.69563 26.6937 4.34207 26.3402 4.34207 25.904V11.8118C4.34207 11.3756 4.69563 11.022 5.13181 11.022H8.49353C8.92971 11.022 9.28327 11.3756 9.28327 11.8118V25.904ZM6.81267 9.69361C5.04887 9.69361 3.61901 8.26374 3.61901 6.49995C3.61901 4.73615 5.04887 3.30628 6.81267 3.30628C8.57647 3.30628 10.0063 4.73615 10.0063 6.49995C10.0063 8.26374 8.57654 9.69361 6.81267 9.69361ZM26.8516 25.9676C26.8516 26.3686 26.5264 26.6937 26.1254 26.6937H22.5181C22.1171 26.6937 21.7919 26.3686 21.7919 25.9676V19.3575C21.7919 18.3715 22.0812 15.0365 19.215 15.0365C16.9918 15.0365 16.5408 17.3192 16.4503 18.3436V25.9676C16.4503 26.3686 16.1252 26.6937 15.7242 26.6937H12.2352C11.8342 26.6937 11.5091 26.3686 11.5091 25.9676V11.7481C11.5091 11.3471 11.8342 11.022 12.2352 11.022H15.7242C16.1252 11.022 16.4503 11.3471 16.4503 11.7481V12.9776C17.2747 11.7404 18.4998 10.7855 21.1083 10.7855C26.8846 10.7855 26.8516 16.1821 26.8516 19.1472V25.9676Z" />
</symbol><symbol fill-rule="evenodd" viewBox="0 0 508 512.06" id="icon-phone">
 <g id="icon-phone_Layer_x0020_1">
  <metadata id="icon-phone_CorelCorpID_0Corel-Layer"></metadata>
  <path fill="black" fill-rule="nonzero" d="M123.43 249.39c15.07,27.16 32.42,53.26 54.98,77.05 22.61,23.95 50.71,45.72 87.14,64.3 2.7,1.32 5.27,1.32 7.55,0.42 3.46,-1.33 6.99,-4.18 10.47,-7.67 2.7,-2.69 6.04,-6.99 9.56,-11.7 13.99,-18.44 31.34,-41.29 55.81,-29.86 0.54,0.25 0.95,0.53 1.49,0.78l81.66 46.96c0.22,0.12 0.53,0.42 0.77,0.53 10.78,7.41 15.2,18.84 15.32,31.76 0,13.18 -4.85,27.98 -11.96,40.5 -9.4,16.5 -23.27,27.43 -39.25,34.69 -15.2,7 -32.13,10.75 -48.4,13.15 -25.55,3.77 -49.47,1.37 -73.94,-6.16 -23.94,-7.42 -48.03,-19.63 -74.37,-35.89l-1.95 -1.25c-12.07,-7.52 -25.12,-15.61 -37.91,-25.13 -46.91,-35.4 -94.65,-86.48 -125.74,-142.71 -26.08,-47.2 -40.32,-98.15 -32.53,-146.73 4.3,-26.63 15.72,-50.84 35.63,-66.82 17.35,-13.98 40.74,-21.64 71.01,-18.96 3.48,0.23 6.58,2.27 8.19,5.24l52.33 88.5c7.67,9.93 8.61,19.75 4.44,29.58 -3.49,8.09 -10.47,15.5 -20.04,22.46 -2.82,2.4 -6.18,4.84 -9.69,7.4 -11.71,8.5 -25,18.3 -20.45,29.85l-0.12 -0.29zm97.51 -42.25c-8.08,-2.08 -12.94,-10.35 -10.85,-18.43 2.09,-8.08 10.35,-12.94 18.43,-10.85 24.51,6.39 47.56,19.66 66.21,37.07 18.76,17.52 33.31,39.41 40.66,62.88 2.48,7.99 -1.98,16.49 -9.96,18.97 -7.98,2.49 -16.49,-1.97 -18.97,-9.95 -5.75,-18.37 -17.33,-35.69 -32.36,-49.73 -15.15,-14.15 -33.68,-24.88 -53.16,-29.96zm2.01 -92.74c-8.25,-1.4 -13.79,-9.24 -12.39,-17.49 1.39,-8.24 9.24,-13.79 17.48,-12.39 46.21,8 90.08,31.46 125.25,64.38 35.19,32.92 61.82,75.41 73.53,121.46 2.06,8.12 -2.85,16.38 -10.97,18.44 -8.12,2.06 -16.38,-2.85 -18.44,-10.97 -10.3,-40.48 -33.75,-77.89 -64.75,-106.89 -30.93,-28.95 -69.38,-49.55 -109.71,-56.54zm9.74 -84.19c-8.31,-0.95 -14.28,-8.47 -13.33,-16.78 0.95,-8.31 8.46,-14.29 16.77,-13.34 64.65,7.57 125.4,37.22 173.49,80.81 48.21,43.69 83.83,101.51 98.02,165.22 1.8,8.14 -3.35,16.22 -11.5,18.02 -8.14,1.8 -16.22,-3.35 -18.02,-11.5 -12.8,-57.45 -45.05,-109.73 -88.77,-149.34 -43.53,-39.45 -98.4,-66.28 -156.66,-73.09z" />
 </g>
</symbol><symbol viewBox="0 0 18 18" id="icon-search">
<path d="M13 7C13 10.3137 10.3137 13 7 13C3.68629 13 1 10.3137 1 7C1 3.68629 3.68629 1 7 1C10.3137 1 13 3.68629 13 7Z" fill="none" stroke-width="2" />
<rect x="10" y="11.4142" width="2" height="8" rx="1" transform="rotate(-45 10 11.4142)" />
</symbol><symbol viewBox="0 0 141 27" fill="none" id="icon-slider-arrow">
<path d="M117.005 13.981L1.45435e-05 13.981" stroke="white" stroke-width="2" />
<path d="M117.982 2.66836L138.898 13.981L117.982 25.2936L117.982 2.66836Z" stroke="white" stroke-width="2" />
</symbol><symbol viewBox="0 0 122.88 109.45" id="icon-street"><defs><style>#icon-street .cls-1{fill-rule:evenodd;}</style></defs><title>office-address</title><path class="cls-1" d="M49,76.93A47.76,47.76,0,0,1,37.49,99.08a46.14,46.14,0,0,1-9.89,8.21,3.45,3.45,0,0,1-3.91.14A56,56,0,0,1,9.83,95.06,44.45,44.45,0,0,1,.44,74.72C-.71,67.62.38,60.76,4,55.15a24.51,24.51,0,0,1,5.44-6A26.2,26.2,0,0,1,25.9,43.08a23.48,23.48,0,0,1,15.83,6.43A23.38,23.38,0,0,1,46,54.66c3.81,6.3,4.66,14.26,3,22.27Zm-8,29.09h78.51V32.12H88.54V106H85.11V3.43H32.85v33.2h-.11l-.05,0h-.16l-.05,0h-.21l-.06,0h-.1l-.11,0h-.16l-.06,0H29.42V18h0V3A3,3,0,0,1,30.3.89h0A3,3,0,0,1,32.43,0h53.1a3,3,0,0,1,2.13.88l.12.14a3,3,0,0,1,.76,2V28.69h31.82a2.47,2.47,0,0,1,1.77.74h0a2.47,2.47,0,0,1,.74,1.77v76.53a1.71,1.71,0,0,1-1.72,1.71H37.1l0,0,.08-.07.09-.07.08-.07.09-.07.06-.05,0,0,0,0,.06,0,0,0,0,0,0,0h0l.05,0,0,0,0,0,.06,0h0l0,0,.05,0h0l.06,0,0,0,0,0,.06,0h0l0,0,0,0h0l.06-.05h0l0,0,0,0h0l0,0,0,0,0,0,0,0h0l0,0,0,0h0l0-.05,0,0,0,0,0,0h0l.06,0,0,0h0l.05,0,0,0,0,0,.05,0h0l.06-.05,0,0,0,0,.06,0h0l0,0,0,0h0l.06,0,0,0,0,0,.05,0h0l0,0,0,0h0l0,0,0,0,0,0,0,0h0L40,107l.11-.09v0l0,0,0,0h0l.06,0,0,0,0,0,0,0h0l0,0,0,0h0l0,0,0,0,0,0,0,0h0l.05-.05,0,0v0l0,0h0l0,0,0,0h0l.05-.05,0,0,0,0ZM56.08,60.54h4a.59.59,0,0,1,.59.59v9.53a.6.6,0,0,1-.59.59H57A41.14,41.14,0,0,0,56.7,64c-.15-1.15-.36-2.29-.62-3.41Zm-.4,19.71h4.38a.59.59,0,0,1,.58.59v9.53a.58.58,0,0,1-.58.59h-8.3a53.08,53.08,0,0,0,3.92-10.71Zm-5-39.42h9.4a.58.58,0,0,1,.58.58v9.53a.58.58,0,0,1-.58.59h-7.5l-.38-.64a34,34,0,0,0-2.11-3.1V41.41a.58.58,0,0,1,.59-.58Zm17,39.42H77a.59.59,0,0,1,.58.59v9.53A.58.58,0,0,1,77,91h-9.4a.58.58,0,0,1-.59-.59V80.84a.59.59,0,0,1,.59-.59Zm0-19.71H77a.58.58,0,0,1,.58.59v9.53a.59.59,0,0,1-.58.59h-9.4a.59.59,0,0,1-.59-.59V61.13a.58.58,0,0,1,.59-.59Zm0-19.71H77a.58.58,0,0,1,.58.58v9.53a.58.58,0,0,1-.58.59h-9.4a.58.58,0,0,1-.59-.59V41.41a.58.58,0,0,1,.59-.58Zm30,30.57h13.6c.16,0,.29.1.29.2v5.59c0,.1-.15.21-.29.21H97.6c-.14,0-.29-.1-.29-.21V71.6c0-.11.13-.2.29-.2ZM40.53,10.89h36.9a1.39,1.39,0,0,1,1.38,1.37V26.85a1.39,1.39,0,0,1-1.38,1.37H40.53a1.39,1.39,0,0,1-1.38-1.37V12.26a1.38,1.38,0,0,1,1.38-1.37ZM97.6,59.17h13.6c.16,0,.29.11.29.21V65c0,.1-.15.21-.29.21H97.6c-.14,0-.29-.1-.29-.21V59.38c0-.12.13-.21.29-.21ZM97.6,47h13.6c.16,0,.29.11.29.21v5.58c0,.1-.15.21-.29.21H97.6c-.14,0-.29-.09-.29-.21V47.16c0-.12.13-.21.29-.21ZM24.88,56.89A11.35,11.35,0,1,1,13.54,68.24,11.35,11.35,0,0,1,24.88,56.89Z" /></symbol><symbol viewBox="0 0 122.88 122.88" id="icon-timing"><title>time-clock</title><path d="M61.44,0A61.46,61.46,0,1,1,18,18,61.23,61.23,0,0,1,61.44,0ZM64.6,55.18a7.05,7.05,0,0,1,2.91,2.74h9.9a2.71,2.71,0,0,1,.34-2.68,2.68,2.68,0,0,1,3.74-.48l5.89,4.55a2.64,2.64,0,0,1,1,2.08h0v.06h0a2.65,2.65,0,0,1-1,2.09l-5.89,4.54A2.66,2.66,0,0,1,77.41,65H67.5a7,7,0,1,1-10-9.35l.08-13.54A2.66,2.66,0,0,1,54.48,38l4.67-5.78a2.67,2.67,0,0,1,2-1h.06a2.65,2.65,0,0,1,2.2,1.08l4.41,6a2.66,2.66,0,0,1-3.13,4.05L64.6,55.18Zm22,43.94a3,3,0,0,1-5.12,3l-2.21-3.82a3,3,0,0,1,5.12-3l2.21,3.83ZM36.27,23.75a3,3,0,0,1,5.12-2.94l2.21,3.82a3,3,0,1,1-5.12,2.94l-2.21-3.82Zm65.8,57.74a3,3,0,1,1-2.94,5.12L95.31,84.4a3,3,0,0,1,2.94-5.12l3.82,2.21ZM20.8,41.39a3,3,0,1,1,3-5.12l3.83,2.21a3,3,0,0,1-3,5.12L20.8,41.39Zm85.86,17.08a3,3,0,0,1,0,5.93h-4.42a3,3,0,0,1,0-5.93ZM16.22,64.41a3,3,0,1,1,0-5.93h4.42a3,3,0,0,1,0,5.93ZM99.13,36.27a3,3,0,0,1,2.94,5.12L98.25,43.6a3,3,0,0,1-2.94-5.12l3.82-2.21ZM23.75,86.61a3,3,0,1,1-2.94-5.12l3.82-2.21a3,3,0,0,1,2.94,5.12l-3.82,2.21Zm57.74-65.8a3,3,0,0,1,5.12,2.94L84.4,27.57a3,3,0,1,1-5.12-2.94l2.21-3.82Zm-40.1,81.27a3,3,0,0,1-5.12-3l2.21-3.83a3,3,0,0,1,5.12,3l-2.21,3.82ZM58.47,16.22a3,3,0,0,1,5.93,0v4.42a3,3,0,0,1-5.93,0V16.22Zm5.93,90.44a3,3,0,1,1-5.93,0v-4.42a3,3,0,0,1,5.93,0v4.42ZM100,22.89a54.51,54.51,0,1,0,16,38.55,54.37,54.37,0,0,0-16-38.55Z" /></symbol><symbol viewBox="0 0 24 30" id="icon-youtube">
<path d="M15.1063 20.6058C15.1054 20.4566 15.0616 20.3013 15.0063 20.1617C14.9325 19.9783 14.7745 19.887 14.5762 19.8677C14.3436 19.8448 14.1575 19.9388 13.989 20.088C13.9214 20.1468 13.8907 20.2346 13.8907 20.2346L13.8942 24.9716V25.0883C13.8942 25.0883 13.9346 25.1427 13.9407 25.1497C14.0776 25.2981 14.2374 25.4157 14.4419 25.4578C14.7789 25.5271 15.0168 25.3867 15.0826 25.0743C15.0993 24.9961 15.1089 24.9154 15.1089 24.8355C15.1107 23.425 15.1133 22.0154 15.1063 20.6058ZM15.1063 20.6058C15.1054 20.4566 15.0616 20.3013 15.0063 20.1617C14.9325 19.9783 14.7745 19.887 14.5762 19.8677C14.3436 19.8448 14.1575 19.9388 13.989 20.088C13.9214 20.1468 13.8907 20.2346 13.8907 20.2346L13.8942 24.9716V25.0883C13.8942 25.0883 13.9346 25.1427 13.9407 25.1497C14.0776 25.2981 14.2374 25.4157 14.4419 25.4578C14.7789 25.5271 15.0168 25.3867 15.0826 25.0743C15.0993 24.9961 15.1089 24.9154 15.1089 24.8355C15.1107 23.425 15.1133 22.0154 15.1063 20.6058ZM20.4103 13.4621C14.8044 13.3419 9.19581 13.3419 3.58899 13.4621C1.64399 13.5034 0.0886841 15.0938 0.0886841 17.0397V25.7957C0.0886841 27.7425 1.64399 29.3329 3.58899 29.3742C9.19581 29.4944 14.8044 29.4944 20.4103 29.3742C22.3562 29.3329 23.9115 27.7425 23.9115 25.7957V17.0397C23.9115 15.0939 22.3562 13.5034 20.4103 13.4621ZM5.23558 26.5937H3.61884V17.4541H1.94504V15.9251H6.91289V17.4505H5.23558V26.5937ZM11.0214 22.8001V26.5944H9.5899V25.7273C9.53812 25.7826 9.50915 25.8124 9.48195 25.8431C9.17387 26.1907 8.82454 26.4803 8.37866 26.6339C8.16099 26.7085 7.93717 26.734 7.70809 26.6945C7.39563 26.6427 7.18585 26.4628 7.05946 26.1784C6.94185 25.916 6.91201 25.6351 6.91113 25.3525C6.90762 24.308 6.90937 18.7802 6.90937 18.7266H8.33741C8.34004 18.7749 8.34531 22.743 8.34619 24.6784C8.34619 24.7837 8.34706 24.8917 8.36813 24.9944C8.42079 25.2542 8.62003 25.3657 8.87018 25.2744C9.15807 25.169 9.3775 24.9707 9.56182 24.7328C9.58903 24.6986 9.58903 24.6371 9.58903 24.588V18.7179L11.0214 18.7144C11.0214 18.7144 11.0214 21.4853 11.0214 22.8001ZM16.4676 25.8361C16.2763 26.4119 15.855 26.705 15.2494 26.6989C14.757 26.6945 14.3576 26.4988 14.0285 26.1415C13.9916 26.102 13.8898 25.9941 13.8898 25.9941V26.5927H12.4556V15.9241H13.8898C13.8898 17.0599 13.8898 19.4358 13.8898 19.4358C13.8898 19.4358 13.9706 19.2743 14.0443 19.191C14.2663 18.9426 14.5367 18.7503 14.8702 18.6661C15.4205 18.5283 16.0551 18.6986 16.3571 19.3419C16.5352 19.722 16.5853 20.1275 16.5853 20.54C16.5879 22.0312 16.5879 23.5225 16.5861 25.0137C16.5853 25.2928 16.5563 25.5685 16.4676 25.8361ZM21.7646 25.536C21.5162 26.2636 21.0028 26.6674 20.2497 26.778C19.7828 26.8464 19.3202 26.8368 18.8822 26.6384C18.2827 26.3681 17.9431 25.8792 17.7974 25.2569C17.7298 24.9673 17.6964 24.6636 17.6929 24.366C17.6815 23.1978 17.6868 22.0287 17.6894 20.8604C17.6903 20.2496 17.836 19.6861 18.2547 19.2182C18.7321 18.6837 19.343 18.4845 20.0408 18.5292C20.2506 18.5424 20.4647 18.5766 20.664 18.6425C21.3425 18.8654 21.7049 19.3736 21.8471 20.0477C21.9016 20.3075 21.9217 20.5769 21.9261 20.8429C21.9375 21.4661 21.9217 22.8397 21.9217 22.8397H19.1754V24.8084C19.1754 25.1621 19.4615 25.4482 19.8152 25.4482C20.1681 25.4482 20.4542 25.1621 20.4542 24.8084V23.7964H21.9296C21.9296 23.7963 21.9516 24.991 21.7646 25.536ZM20.4542 20.5138C20.4542 20.1609 20.1681 19.8739 19.8152 19.8739C19.4615 19.8739 19.1754 20.1609 19.1754 20.5138V21.6188H20.4542V20.5138ZM15.0063 20.1618C14.9325 19.9783 14.7745 19.8871 14.5762 19.8678C14.3436 19.8449 14.1575 19.9388 13.989 20.0881C13.9214 20.1469 13.8907 20.2346 13.8907 20.2346L13.8942 24.9716V25.0884C13.8942 25.0884 13.9346 25.1428 13.9407 25.1498C14.0776 25.2982 14.2374 25.4158 14.4419 25.4579C14.7789 25.5272 15.0168 25.3868 15.0826 25.0743C15.0993 24.9962 15.1089 24.9155 15.1089 24.8356C15.1107 23.4251 15.1133 22.0155 15.1063 20.6059C15.1054 20.4566 15.0616 20.3013 15.0063 20.1618Z" fill-opacity="0.5" />
<path d="M18.6722 3.33728L18.6717 11.2581H17.204L17.2058 10.4072C17.0435 10.567 16.905 10.7163 16.7528 10.8504C16.483 11.0881 16.1774 11.2653 15.8199 11.3352C15.271 11.4426 14.8036 11.2691 14.6285 10.7007C14.5703 10.5113 14.5351 10.3073 14.5336 10.1096V3.33728H15.9902V9.37778C15.9902 9.45782 15.9966 9.53875 16.0107 9.61722C16.0549 9.86614 16.2389 9.98331 16.4786 9.90019C16.7708 9.79908 16.9937 9.59677 17.1829 9.35838C17.2097 9.32432 17.2049 9.26078 17.2049 9.21084V3.33728H18.6722Z" fill-opacity="0.5" />
<path d="M6.53265 4.71372C6.21404 3.37074 5.54654 0.535645 5.54654 0.535645H3.87634C3.87634 0.535645 5.15956 4.7914 5.7334 6.68936C5.75403 6.758 5.76351 6.83252 5.76351 6.9044L5.76289 11.2564H7.30301L7.3024 6.9044C7.3024 6.83252 7.31188 6.758 7.3325 6.68936C7.90635 4.7914 9.18957 0.535645 9.18957 0.535645H7.51937C7.51937 0.535645 6.85178 3.37074 6.53326 4.71372H6.53265Z" fill-opacity="0.5" />
<path d="M11.1997 3.13904C10.0391 3.13904 9.09814 4.07994 9.09814 5.24063V9.35349C9.09814 10.5142 10.0391 11.4551 11.1997 11.4551C12.3604 11.4551 13.3013 10.5142 13.3013 9.35349V5.24063C13.3014 4.07994 12.3604 3.13904 11.1997 3.13904ZM11.8062 9.43652C11.8062 9.77093 11.5341 10.0429 11.1998 10.0429C10.8655 10.0429 10.5934 9.77093 10.5934 9.43652V5.15751C10.5934 4.8231 10.8655 4.5511 11.1998 4.5511C11.5341 4.5511 11.8062 4.82319 11.8062 5.15751V9.43652Z" fill-opacity="0.5" />
</symbol></defs></svg>