<svg width="24" height="30" viewBox="0 0 24 30"  xmlns="http://www.w3.org/2000/svg">
<path d="M15.1063 20.6058C15.1054 20.4566 15.0616 20.3013 15.0063 20.1617C14.9325 19.9783 14.7745 19.887 14.5762 19.8677C14.3436 19.8448 14.1575 19.9388 13.989 20.088C13.9214 20.1468 13.8907 20.2346 13.8907 20.2346L13.8942 24.9716V25.0883C13.8942 25.0883 13.9346 25.1427 13.9407 25.1497C14.0776 25.2981 14.2374 25.4157 14.4419 25.4578C14.7789 25.5271 15.0168 25.3867 15.0826 25.0743C15.0993 24.9961 15.1089 24.9154 15.1089 24.8355C15.1107 23.425 15.1133 22.0154 15.1063 20.6058ZM15.1063 20.6058C15.1054 20.4566 15.0616 20.3013 15.0063 20.1617C14.9325 19.9783 14.7745 19.887 14.5762 19.8677C14.3436 19.8448 14.1575 19.9388 13.989 20.088C13.9214 20.1468 13.8907 20.2346 13.8907 20.2346L13.8942 24.9716V25.0883C13.8942 25.0883 13.9346 25.1427 13.9407 25.1497C14.0776 25.2981 14.2374 25.4157 14.4419 25.4578C14.7789 25.5271 15.0168 25.3867 15.0826 25.0743C15.0993 24.9961 15.1089 24.9154 15.1089 24.8355C15.1107 23.425 15.1133 22.0154 15.1063 20.6058ZM20.4103 13.4621C14.8044 13.3419 9.19581 13.3419 3.58899 13.4621C1.64399 13.5034 0.0886841 15.0938 0.0886841 17.0397V25.7957C0.0886841 27.7425 1.64399 29.3329 3.58899 29.3742C9.19581 29.4944 14.8044 29.4944 20.4103 29.3742C22.3562 29.3329 23.9115 27.7425 23.9115 25.7957V17.0397C23.9115 15.0939 22.3562 13.5034 20.4103 13.4621ZM5.23558 26.5937H3.61884V17.4541H1.94504V15.9251H6.91289V17.4505H5.23558V26.5937ZM11.0214 22.8001V26.5944H9.5899V25.7273C9.53812 25.7826 9.50915 25.8124 9.48195 25.8431C9.17387 26.1907 8.82454 26.4803 8.37866 26.6339C8.16099 26.7085 7.93717 26.734 7.70809 26.6945C7.39563 26.6427 7.18585 26.4628 7.05946 26.1784C6.94185 25.916 6.91201 25.6351 6.91113 25.3525C6.90762 24.308 6.90937 18.7802 6.90937 18.7266H8.33741C8.34004 18.7749 8.34531 22.743 8.34619 24.6784C8.34619 24.7837 8.34706 24.8917 8.36813 24.9944C8.42079 25.2542 8.62003 25.3657 8.87018 25.2744C9.15807 25.169 9.3775 24.9707 9.56182 24.7328C9.58903 24.6986 9.58903 24.6371 9.58903 24.588V18.7179L11.0214 18.7144C11.0214 18.7144 11.0214 21.4853 11.0214 22.8001ZM16.4676 25.8361C16.2763 26.4119 15.855 26.705 15.2494 26.6989C14.757 26.6945 14.3576 26.4988 14.0285 26.1415C13.9916 26.102 13.8898 25.9941 13.8898 25.9941V26.5927H12.4556V15.9241H13.8898C13.8898 17.0599 13.8898 19.4358 13.8898 19.4358C13.8898 19.4358 13.9706 19.2743 14.0443 19.191C14.2663 18.9426 14.5367 18.7503 14.8702 18.6661C15.4205 18.5283 16.0551 18.6986 16.3571 19.3419C16.5352 19.722 16.5853 20.1275 16.5853 20.54C16.5879 22.0312 16.5879 23.5225 16.5861 25.0137C16.5853 25.2928 16.5563 25.5685 16.4676 25.8361ZM21.7646 25.536C21.5162 26.2636 21.0028 26.6674 20.2497 26.778C19.7828 26.8464 19.3202 26.8368 18.8822 26.6384C18.2827 26.3681 17.9431 25.8792 17.7974 25.2569C17.7298 24.9673 17.6964 24.6636 17.6929 24.366C17.6815 23.1978 17.6868 22.0287 17.6894 20.8604C17.6903 20.2496 17.836 19.6861 18.2547 19.2182C18.7321 18.6837 19.343 18.4845 20.0408 18.5292C20.2506 18.5424 20.4647 18.5766 20.664 18.6425C21.3425 18.8654 21.7049 19.3736 21.8471 20.0477C21.9016 20.3075 21.9217 20.5769 21.9261 20.8429C21.9375 21.4661 21.9217 22.8397 21.9217 22.8397H19.1754V24.8084C19.1754 25.1621 19.4615 25.4482 19.8152 25.4482C20.1681 25.4482 20.4542 25.1621 20.4542 24.8084V23.7964H21.9296C21.9296 23.7963 21.9516 24.991 21.7646 25.536ZM20.4542 20.5138C20.4542 20.1609 20.1681 19.8739 19.8152 19.8739C19.4615 19.8739 19.1754 20.1609 19.1754 20.5138V21.6188H20.4542V20.5138ZM15.0063 20.1618C14.9325 19.9783 14.7745 19.8871 14.5762 19.8678C14.3436 19.8449 14.1575 19.9388 13.989 20.0881C13.9214 20.1469 13.8907 20.2346 13.8907 20.2346L13.8942 24.9716V25.0884C13.8942 25.0884 13.9346 25.1428 13.9407 25.1498C14.0776 25.2982 14.2374 25.4158 14.4419 25.4579C14.7789 25.5272 15.0168 25.3868 15.0826 25.0743C15.0993 24.9962 15.1089 24.9155 15.1089 24.8356C15.1107 23.4251 15.1133 22.0155 15.1063 20.6059C15.1054 20.4566 15.0616 20.3013 15.0063 20.1618Z"  fill-opacity="0.5"/>
<path d="M18.6722 3.33728L18.6717 11.2581H17.204L17.2058 10.4072C17.0435 10.567 16.905 10.7163 16.7528 10.8504C16.483 11.0881 16.1774 11.2653 15.8199 11.3352C15.271 11.4426 14.8036 11.2691 14.6285 10.7007C14.5703 10.5113 14.5351 10.3073 14.5336 10.1096V3.33728H15.9902V9.37778C15.9902 9.45782 15.9966 9.53875 16.0107 9.61722C16.0549 9.86614 16.2389 9.98331 16.4786 9.90019C16.7708 9.79908 16.9937 9.59677 17.1829 9.35838C17.2097 9.32432 17.2049 9.26078 17.2049 9.21084V3.33728H18.6722Z"  fill-opacity="0.5"/>
<path d="M6.53265 4.71372C6.21404 3.37074 5.54654 0.535645 5.54654 0.535645H3.87634C3.87634 0.535645 5.15956 4.7914 5.7334 6.68936C5.75403 6.758 5.76351 6.83252 5.76351 6.9044L5.76289 11.2564H7.30301L7.3024 6.9044C7.3024 6.83252 7.31188 6.758 7.3325 6.68936C7.90635 4.7914 9.18957 0.535645 9.18957 0.535645H7.51937C7.51937 0.535645 6.85178 3.37074 6.53326 4.71372H6.53265Z" fill-opacity="0.5"/>
<path d="M11.1997 3.13904C10.0391 3.13904 9.09814 4.07994 9.09814 5.24063V9.35349C9.09814 10.5142 10.0391 11.4551 11.1997 11.4551C12.3604 11.4551 13.3013 10.5142 13.3013 9.35349V5.24063C13.3014 4.07994 12.3604 3.13904 11.1997 3.13904ZM11.8062 9.43652C11.8062 9.77093 11.5341 10.0429 11.1998 10.0429C10.8655 10.0429 10.5934 9.77093 10.5934 9.43652V5.15751C10.5934 4.8231 10.8655 4.5511 11.1998 4.5511C11.5341 4.5511 11.8062 4.82319 11.8062 5.15751V9.43652Z" fill-opacity="0.5"/>
</svg>
