<?xml version="1.0" standalone="no"?>
<!DOCTYPE svg PUBLIC "-//W3C//DTD SVG 20010904//EN"
 "http://www.w3.org/TR/2001/REC-SVG-20010904/DTD/svg10.dtd">
<svg version="1.0" xmlns="http://www.w3.org/2000/svg"
 width="512.000000pt" height="512.000000pt" viewBox="0 0 512.000000 512.000000"
 preserveAspectRatio="xMidYMid meet">

<g transform="translate(0.000000,512.000000) scale(0.100000,-0.100000)"
fill="#000000" stroke="none">
<path d="M733 4675 c-136 -42 -228 -152 -278 -331 -22 -80 -31 -318 -16 -411
17 -100 59 -181 135 -262 84 -90 79 -68 117 -466 19 -206 55 -312 128 -378 48
-43 107 -61 170 -52 114 17 187 91 285 291 37 76 77 152 88 167 19 27 21 27
39 11 10 -9 53 -87 96 -173 63 -128 87 -166 133 -213 92 -91 198 -111 296 -53
98 58 141 182 164 475 13 179 28 276 47 314 8 15 41 57 73 91 104 112 133 201
133 415 0 359 -143 573 -394 588 -123 7 -210 -25 -380 -141 -129 -88 -155
-100 -197 -93 -20 3 -84 37 -147 80 -132 87 -201 124 -270 142 -63 17 -167 17
-222 -1z m226 -225 c24 -12 91 -54 150 -94 139 -95 203 -119 297 -114 84 6
143 33 297 138 150 102 218 120 296 80 49 -24 74 -56 103 -128 19 -50 22 -76
23 -217 0 -189 -7 -212 -100 -316 -99 -110 -116 -163 -141 -444 -17 -202 -30
-286 -49 -331 -29 -69 -56 -41 -157 163 -104 212 -177 283 -289 283 -115 0
-186 -66 -280 -260 -34 -69 -75 -146 -91 -172 -67 -106 -95 -43 -123 269 -29
324 -43 374 -137 479 -82 93 -106 148 -114 260 -14 199 36 363 126 412 54 29
123 26 189 -8z"/>
<path d="M3130 4662 c-38 -38 -42 -74 -38 -330 l3 -214 38 -34 37 -34 -26
-104 -26 -104 -116 -4 c-85 -4 -131 -11 -169 -25 -109 -43 -201 -134 -247
-246 l-21 -52 -3 -1350 c-1 -905 1 -1366 8 -1400 31 -150 134 -266 279 -315
61 -20 74 -20 799 -18 l737 3 66 32 c84 42 160 118 202 202 l32 66 3 1377 c2
1373 2 1378 -19 1440 -24 72 -62 130 -118 181 -79 71 -153 97 -300 106 l-115
6 -26 106 -27 105 29 17 c15 9 33 28 38 42 14 37 13 490 -1 518 -30 58 -12 57
-522 57 l-469 0 -28 -28z m820 -287 l0 -105 -320 0 -320 0 0 105 0 105 320 0
320 0 0 -105z m-58 -430 l25 -105 -288 0 c-159 0 -289 3 -289 6 0 6 16 72 41
167 l10 37 237 0 238 0 26 -105z m484 -350 c37 -23 56 -44 77 -84 25 -51 27
-63 27 -183 l0 -128 -855 0 -855 0 0 113 c0 61 4 129 9 150 18 76 79 137 156
156 24 6 316 9 716 8 l676 -2 49 -30z m104 -1460 l0 -855 -855 0 -855 0 0 848
c0 467 3 852 7 855 3 4 388 7 855 7 l848 0 0 -855z m0 -1197 c0 -107 -4 -141
-19 -173 -23 -51 -79 -101 -128 -114 -25 -7 -273 -11 -714 -11 l-675 0 -55 28
c-40 20 -61 39 -83 75 -27 44 -29 56 -34 172 -2 68 -2 131 1 139 6 14 94 16
857 16 l850 0 0 -132z"/>
<path d="M3540 2761 c-116 -36 -200 -129 -225 -251 l-12 -55 -44 -6 c-69 -10
-135 -46 -187 -103 -56 -63 -82 -129 -82 -213 0 -157 106 -283 261 -314 l57
-11 4 -43 c7 -59 44 -131 91 -178 93 -93 233 -118 355 -63 95 44 159 126 183
235 10 50 11 50 62 61 112 24 187 84 235 189 74 160 -9 358 -178 422 -27 10
-63 19 -79 19 -29 0 -40 18 -41 65 0 38 -49 125 -95 169 -58 57 -134 86 -218
85 -34 0 -73 -4 -87 -8z m139 -215 c38 -20 51 -55 51 -137 0 -134 36 -169 176
-169 73 0 77 -1 110 -34 46 -46 48 -104 5 -147 -28 -27 -34 -29 -113 -29 -146
0 -176 -32 -177 -183 -1 -73 -3 -81 -30 -108 -32 -32 -79 -38 -126 -17 -40 18
-55 57 -55 143 0 131 -36 165 -176 165 -74 0 -77 1 -111 35 -32 32 -35 40 -30
77 3 25 15 51 31 67 23 22 36 26 118 31 146 9 161 23 168 161 4 78 9 102 25
119 36 41 86 50 134 26z"/>
<path d="M1262 1539 c-71 -12 -149 -50 -206 -100 l-47 -41 -102 -4 c-224 -7
-366 -85 -440 -242 -30 -63 -32 -74 -32 -177 0 -125 13 -161 82 -227 92 -88
210 -121 443 -123 l165 -2 63 -61 c38 -37 89 -74 130 -94 62 -31 74 -33 167
-33 95 0 103 2 163 34 76 42 153 123 202 215 34 63 37 66 80 72 341 46 493
220 406 466 -47 133 -119 223 -218 274 -44 23 -69 28 -148 32 -83 4 -105 1
-175 -23 -44 -14 -99 -38 -123 -51 -42 -25 -44 -25 -69 -7 -60 42 -81 54 -128
72 -64 24 -146 31 -213 20z m158 -224 c15 -8 51 -41 80 -75 48 -55 55 -60 93
-60 34 0 57 10 117 50 96 64 165 90 240 90 55 0 63 -3 100 -36 80 -72 114
-198 67 -242 -36 -34 -130 -63 -249 -76 -59 -7 -114 -19 -124 -26 -9 -8 -34
-51 -55 -96 -46 -96 -115 -178 -165 -194 -27 -9 -47 -9 -86 1 -52 12 -80 36
-194 163 l-32 35 -179 -6 c-288 -10 -394 25 -393 129 1 51 21 111 47 140 49
55 184 85 311 70 93 -11 127 1 166 57 38 53 72 80 117 91 42 11 102 4 139 -15z"/>
</g>
</svg>
