<?xml version="1.0" standalone="no"?>
<!DOCTYPE svg PUBLIC "-//W3C//DTD SVG 20010904//EN"
 "http://www.w3.org/TR/2001/REC-SVG-20010904/DTD/svg10.dtd">
<svg version="1.0" xmlns="http://www.w3.org/2000/svg"
 width="512.000000pt" height="512.000000pt" viewBox="0 0 512.000000 512.000000"
 preserveAspectRatio="xMidYMid meet">

<g transform="translate(0.000000,512.000000) scale(0.100000,-0.100000)"
fill="#000000" stroke="none">
<path d="M2190 5024 c-110 -28 -218 -91 -300 -173 -127 -128 -190 -282 -190
-465 0 -138 28 -235 114 -406 159 -312 174 -404 150 -890 -5 -96 -6 -256 -3
-355 5 -156 9 -187 28 -231 78 -178 310 -224 446 -89 49 50 70 99 89 214 9 52
28 128 42 170 32 100 148 334 187 378 92 105 264 106 352 2 37 -44 146 -265
184 -372 17 -49 40 -134 51 -189 24 -114 44 -159 92 -205 75 -72 210 -98 301
-59 55 24 127 94 150 145 30 68 42 314 28 571 -27 494 -10 599 144 905 91 181
115 266 115 409 0 180 -52 321 -162 441 -135 148 -289 215 -492 215 -121 0
-188 -16 -319 -80 -118 -57 -166 -69 -262 -70 -89 0 -147 16 -265 73 -52 25
-123 53 -156 61 -77 20 -249 20 -324 0z m301 -150 c29 -9 89 -34 133 -56 207
-104 420 -104 625 1 107 55 170 71 272 71 228 0 415 -138 480 -352 18 -57 20
-87 17 -176 -6 -127 -16 -159 -109 -344 -82 -164 -122 -278 -145 -413 -14 -86
-15 -138 -8 -365 13 -382 7 -636 -14 -679 -25 -50 -60 -73 -116 -73 -85 0
-113 34 -140 172 -27 134 -70 252 -156 426 -70 142 -87 168 -139 217 -161 149
-394 139 -544 -23 -100 -108 -236 -421 -271 -624 -22 -127 -56 -169 -137 -168
-49 1 -83 21 -106 65 -16 29 -18 63 -17 327 0 162 2 376 5 475 6 272 -26 406
-157 661 -88 171 -114 257 -114 369 0 146 47 262 145 360 61 61 156 116 231
134 65 15 205 13 265 -5z"/>
<path d="M2301 4699 c-93 -18 -195 -102 -238 -196 -22 -49 -25 -65 -21 -141 4
-74 9 -98 39 -157 40 -82 71 -105 116 -83 15 7 34 25 41 40 12 25 10 35 -18
97 -22 50 -30 85 -30 125 0 50 4 60 37 97 42 46 73 64 127 74 46 9 76 39 76
77 0 27 -30 68 -49 68 -5 0 -15 2 -23 4 -7 2 -33 0 -57 -5z"/>
<path d="M2905 3770 c-31 -12 -48 -38 -48 -71 0 -50 27 -67 123 -78 47 -5 108
-17 135 -26 106 -36 221 -119 279 -204 47 -68 110 -72 145 -9 14 24 14 30 -1
61 -21 44 -116 147 -177 192 -68 49 -157 91 -242 114 -87 23 -186 33 -214 21z"/>
<path d="M100 2330 c-20 -20 -20 -27 -20 -1118 0 -1052 1 -1100 18 -1115 17
-15 57 -17 378 -17 358 0 359 0 411 24 97 46 165 138 179 245 4 28 8 51 9 51
1 0 116 -27 256 -59 384 -90 431 -96 729 -96 268 0 335 6 540 52 226 49 461
138 670 254 52 29 439 250 860 492 502 288 780 453 808 481 24 22 56 64 70 91
24 45 27 61 27 150 0 89 -3 106 -27 150 -32 62 -104 130 -165 157 -58 26 -149
34 -208 19 -26 -6 -349 -125 -718 -263 -370 -138 -679 -252 -687 -255 -12 -3
-15 7 -16 50 -3 123 -67 242 -167 311 -102 70 -97 70 -637 76 l-485 5 -65 32
c-117 58 -173 68 -380 67 -166 0 -195 -3 -280 -26 -52 -15 -102 -29 -112 -33
-13 -5 -17 2 -23 37 -16 94 -86 187 -174 230 -45 22 -55 23 -408 26 -353 3
-363 2 -383 -18z m740 -152 c18 -13 43 -36 54 -51 21 -28 21 -31 21 -912 0
-881 0 -884 -21 -912 -11 -15 -36 -38 -54 -50 -32 -23 -39 -23 -321 -23 l-289
0 0 985 0 985 289 0 c282 0 289 0 321 -22z m825 -223 c39 -8 106 -32 150 -54
l80 -40 490 -3 c476 -3 491 -4 535 -24 197 -93 186 -377 -17 -450 -30 -10
-172 -13 -691 -14 l-653 0 -24 -25 c-32 -31 -32 -69 0 -100 l24 -25 659 0
c573 0 665 2 713 16 66 19 110 46 169 100 53 49 17 35 715 294 297 111 611
228 698 261 171 64 209 69 273 40 113 -51 142 -218 51 -298 -26 -23 -1449
-847 -1687 -977 -162 -88 -421 -180 -622 -220 -169 -34 -291 -46 -470 -46
-215 0 -349 19 -690 97 l-298 68 0 667 0 666 81 27 c44 15 113 33 152 40 98
18 277 18 362 0z"/>
<path d="M473 695 c-29 -20 -37 -59 -19 -94 19 -37 32 -41 122 -41 66 0 78 3
99 25 30 30 32 64 4 99 -19 24 -26 26 -103 26 -56 0 -88 -5 -103 -15z"/>
</g>
</svg>
