<?xml version="1.0" standalone="no"?>
<!DOCTYPE svg PUBLIC "-//W3C//DTD SVG 20010904//EN"
 "http://www.w3.org/TR/2001/REC-SVG-20010904/DTD/svg10.dtd">
<svg version="1.0" xmlns="http://www.w3.org/2000/svg"
 width="512.000000pt" height="512.000000pt" viewBox="0 0 512.000000 512.000000"
 preserveAspectRatio="xMidYMid meet">

<g transform="translate(0.000000,512.000000) scale(0.100000,-0.100000)"
fill="#000000" stroke="none">
<path d="M430 5022 c-165 -44 -295 -177 -335 -343 -13 -55 -15 -227 -15 -1254
0 -1300 -1 -1259 58 -1369 35 -65 123 -153 188 -188 58 -31 159 -58 222 -58
l42 0 0 -162 c0 -179 6 -212 49 -280 44 -70 104 -101 206 -106 94 -5 155 11
227 58 26 17 130 129 243 260 l198 230 1141 2 1141 3 58 23 c129 52 246 176
284 300 17 53 18 140 18 1287 0 1196 -1 1232 -20 1290 -41 127 -153 245 -282
297 l-58 23 -1650 2 c-1528 2 -1655 1 -1715 -15z m3387 -171 c65 -29 134 -101
159 -166 18 -48 19 -91 19 -1260 0 -1169 -1 -1212 -19 -1260 -25 -65 -94 -137
-159 -166 l-52 -24 -1162 -5 c-928 -4 -1165 -8 -1175 -18 -7 -7 -107 -122
-223 -255 -228 -263 -257 -287 -341 -287 -55 0 -87 20 -105 67 -5 13 -9 114
-9 223 0 127 -4 208 -11 224 -16 35 -49 44 -169 49 -88 3 -113 8 -155 29 -65
33 -127 100 -151 164 -18 47 -19 93 -19 1259 0 1166 1 1212 19 1259 21 56 84
129 130 153 82 43 36 42 1741 40 l1630 -2 52 -24z"/>
<path d="M1549 4420 c-383 -59 -569 -463 -444 -965 24 -97 189 -577 254 -740
82 -206 171 -287 316 -289 148 -2 249 95 304 294 28 98 7 144 -64 144 -47 0
-62 -17 -86 -98 -42 -142 -97 -198 -177 -177 -87 24 -101 52 -293 599 -102
291 -130 411 -131 562 -1 130 14 204 58 296 67 141 185 216 340 217 100 0 155
-23 209 -89 l36 -44 -48 0 c-54 -1 -77 -14 -92 -53 -12 -31 -2 -65 25 -87 28
-24 286 -18 388 9 106 28 148 54 238 150 89 95 123 112 222 113 205 0 335
-109 392 -332 13 -52 15 -94 11 -210 -7 -177 -17 -220 -139 -565 -158 -452
-181 -505 -240 -548 -36 -27 -99 -27 -135 -1 -39 28 -57 69 -97 221 -39 145
-68 212 -118 269 -61 69 -160 94 -212 53 -53 -42 -18 -139 52 -139 53 0 78
-41 117 -194 40 -155 77 -237 136 -301 56 -61 118 -89 194 -89 106 1 198 61
260 172 67 120 294 766 324 925 25 130 28 322 6 425 -56 266 -230 438 -481
473 -148 20 -265 -24 -396 -149 -96 -91 -113 -102 -165 -102 -48 0 -78 20
-148 97 -114 126 -254 178 -416 153z"/>
<path d="M4323 3834 c-21 -21 -24 -32 -20 -62 11 -63 20 -66 195 -73 129 -4
165 -9 203 -26 66 -30 124 -86 156 -151 l28 -57 0 -1220 0 -1220 -24 -53 c-32
-71 -115 -147 -183 -167 -29 -8 -90 -15 -139 -15 -98 0 -131 -11 -148 -47 -7
-15 -11 -98 -11 -221 0 -216 -8 -253 -60 -280 -38 -20 -123 -10 -164 19 -18
13 -127 132 -241 264 -114 132 -217 245 -229 252 -16 9 -286 12 -1163 13
-1129 0 -1143 0 -1197 21 -107 40 -179 138 -195 264 -6 53 -13 72 -31 87 -56
45 -130 3 -130 -74 0 -155 108 -331 246 -401 118 -60 55 -57 1278 -57 l1121
-1 185 -215 c207 -241 229 -263 303 -301 41 -21 70 -27 137 -31 81 -4 88 -2
150 30 49 25 73 46 97 81 46 69 53 103 53 280 l0 157 54 0 c30 0 83 9 118 20
170 52 295 192 327 365 15 79 15 2380 1 2456 -25 131 -124 266 -239 328 -86
45 -166 61 -319 61 -130 0 -134 -1 -159 -26z"/>
</g>
</svg>
