<?xml version="1.0" standalone="no"?>
<!DOCTYPE svg PUBLIC "-//W3C//DTD SVG 20010904//EN"
 "http://www.w3.org/TR/2001/REC-SVG-20010904/DTD/svg10.dtd">
<svg version="1.0" xmlns="http://www.w3.org/2000/svg"
 width="512.000000pt" height="512.000000pt" viewBox="0 0 512.000000 512.000000"
 preserveAspectRatio="xMidYMid meet">

<g transform="translate(0.000000,512.000000) scale(0.100000,-0.100000)"
fill="#000000" stroke="none">
<path d="M3859 4650 c-35 -66 -67 -120 -72 -120 -4 0 -18 7 -31 15 -12 8 -60
29 -105 45 -303 111 -671 66 -1036 -126 -124 -65 -202 -86 -320 -86 -118 0
-197 21 -320 86 -382 202 -788 240 -1099 102 -242 -108 -391 -333 -437 -662
-11 -76 -10 -87 5 -102 31 -31 50 -4 63 92 19 132 40 201 90 306 37 77 60 109
123 173 64 64 94 85 171 121 137 64 222 81 404 80 227 -1 389 -41 595 -147
180 -92 235 -109 375 -114 161 -7 221 9 410 102 254 126 391 160 640 159 144
0 169 -3 248 -27 70 -22 178 -67 195 -82 2 -2 -17 -41 -42 -87 l-45 -83 -235
-124 c-129 -69 -237 -130 -240 -137 -9 -24 21 -44 239 -159 121 -63 226 -122
233 -129 8 -7 67 -114 132 -237 65 -123 125 -228 134 -234 23 -14 34 1 122
167 43 81 80 146 82 144 6 -7 -57 -221 -125 -421 -36 -104 -138 -386 -228
-625 -89 -239 -169 -457 -178 -485 -10 -34 -17 -113 -21 -250 -21 -702 -166
-1182 -409 -1349 -43 -30 -64 -38 -100 -38 -63 0 -105 25 -128 76 -10 23 -62
211 -114 417 -110 429 -183 657 -260 814 -84 171 -189 275 -280 275 -86 0
-184 -93 -263 -247 -88 -173 -135 -318 -262 -813 -109 -423 -123 -466 -170
-498 -29 -20 -44 -23 -92 -20 -47 3 -65 11 -110 45 -177 134 -305 454 -362
908 -20 154 -36 398 -36 530 0 83 -6 127 -30 220 -36 140 -44 157 -73 153 -30
-4 -28 -45 6 -173 19 -71 27 -123 27 -185 0 -47 5 -159 10 -250 30 -476 114
-835 252 -1067 48 -82 160 -197 221 -228 69 -34 136 -34 206 1 31 16 61 40 72
58 29 46 69 181 144 476 115 460 183 672 265 829 110 210 213 246 322 110 113
-142 199 -383 357 -997 49 -192 100 -371 112 -397 32 -67 83 -98 170 -103 59
-4 74 -1 117 23 283 154 454 670 478 1443 l7 197 174 465 c269 717 393 1107
393 1237 l0 40 226 119 c124 65 230 126 234 134 5 9 5 22 1 29 -5 7 -113 68
-240 135 l-233 122 -123 235 c-155 294 -146 289 -236 119z m202 -202 l107
-203 206 -109 c114 -60 203 -113 199 -117 -5 -5 -98 -55 -207 -113 l-199 -104
-106 -202 c-58 -110 -110 -202 -114 -203 -5 -1 -57 90 -116 202 l-109 203
-198 105 c-110 57 -203 108 -207 112 -4 5 84 56 197 115 235 123 196 81 347
371 45 86 84 154 87 151 3 -3 54 -97 113 -208z"/>
<path d="M802 3594 c-14 -25 -3 -62 149 -514 280 -829 271 -805 299 -805 19 0
26 6 28 25 2 14 -76 257 -173 540 -97 283 -193 571 -214 640 -31 104 -41 126
-58 128 -12 2 -25 -4 -31 -14z"/>
<path d="M474 3376 c-3 -9 9 -62 28 -118 27 -82 38 -104 54 -106 44 -6 46 19
10 129 -31 94 -36 104 -60 107 -17 2 -28 -2 -32 -12z"/>
<path d="M686 2773 c-3 -10 11 -63 32 -118 33 -90 40 -100 62 -100 37 0 36 27
-3 136 -29 84 -36 94 -59 97 -18 2 -28 -2 -32 -15z"/>
</g>
</svg>
