<?xml version="1.0" standalone="no"?>
<!DOCTYPE svg PUBLIC "-//W3C//DTD SVG 20010904//EN"
 "http://www.w3.org/TR/2001/REC-SVG-20010904/DTD/svg10.dtd">
<svg version="1.0" xmlns="http://www.w3.org/2000/svg"
 width="512.000000pt" height="512.000000pt" viewBox="0 0 512.000000 512.000000"
 preserveAspectRatio="xMidYMid meet">

<g transform="translate(0.000000,512.000000) scale(0.100000,-0.100000)"
fill="#000000" stroke="none">
<path d="M2526 4998 c-96 -18 -192 -72 -270 -150 -100 -100 -156 -226 -156
-348 0 -51 13 -70 46 -70 31 0 40 16 52 97 18 129 75 226 175 300 224 164 543
76 658 -182 16 -37 23 -76 27 -147 5 -105 -9 -165 -55 -244 -30 -53 -117 -135
-171 -163 -50 -25 -144 -51 -188 -51 -66 0 -64 16 -64 -481 l0 -449 -89 0
c-82 0 -91 -2 -105 -22 -14 -20 -16 -177 -16 -1480 l0 -1458 21 -21 c20 -20
29 -21 125 -17 90 4 111 9 168 37 79 39 147 111 175 187 21 54 21 67 21 1402
0 1035 -3 1351 -12 1360 -8 8 -45 12 -100 12 l-88 0 0 418 0 418 58 11 c189
35 361 202 407 394 88 375 -242 719 -619 647z m262 -3290 l-3 -1313 -29 -53
c-49 -88 -123 -131 -228 -132 l-58 0 0 1405 0 1405 160 0 160 0 -2 -1312z"/>
<path d="M1171 4924 c-80 -21 -147 -61 -222 -131 -110 -104 -163 -230 -162
-388 1 -264 177 -464 456 -520 l27 -5 0 -385 0 -385 -93 0 c-59 0 -97 -4 -105
-12 -9 -9 -12 -352 -12 -1483 0 -1715 -19 -1511 137 -1503 172 9 272 67 335
196 l33 67 3 1354 c2 999 -1 1357 -9 1367 -8 10 -38 14 -105 14 l-94 0 0 385
0 385 28 5 c219 44 364 167 433 365 29 86 31 230 5 310 -33 98 -76 168 -145
233 -76 71 -143 110 -226 132 -73 19 -212 18 -284 -1z m231 -85 c217 -46 361
-237 345 -459 -7 -103 -46 -189 -122 -269 -91 -96 -198 -137 -338 -129 -187
10 -344 139 -392 323 -80 308 197 600 507 534z m68 -3129 c0 -1089 -2 -1316
-14 -1344 -38 -90 -137 -156 -238 -156 l-58 0 0 1405 0 1405 155 0 155 0 0
-1310z"/>
<path d="M3566 4814 c-20 -20 -20 -48 0 -65 9 -7 154 -86 322 -175 169 -89
307 -166 307 -171 0 -6 -98 -104 -217 -218 l-218 -209 0 -433 0 -433 -93 0
c-59 0 -97 -4 -105 -12 -9 -9 -12 -353 -12 -1484 0 -1371 1 -1474 17 -1490 25
-24 196 -15 276 15 73 29 149 101 185 178 l27 58 3 1354 c2 1000 -1 1357 -9
1367 -8 10 -38 14 -105 14 l-94 0 0 409 0 409 236 227 c129 126 239 237 245
247 6 11 6 24 0 36 -10 18 -711 392 -736 392 -7 0 -21 -7 -29 -16z m394 -3104
c0 -1089 -2 -1316 -14 -1344 -38 -90 -137 -156 -238 -156 l-58 0 0 1405 0
1405 155 0 155 0 0 -1310z"/>
</g>
</svg>
