<?xml version="1.0" standalone="no"?>
<!DOCTYPE svg PUBLIC "-//W3C//DTD SVG 20010904//EN"
 "http://www.w3.org/TR/2001/REC-SVG-20010904/DTD/svg10.dtd">
<svg version="1.0" xmlns="http://www.w3.org/2000/svg"
 width="512.000000pt" height="512.000000pt" viewBox="0 0 512.000000 512.000000"
 preserveAspectRatio="xMidYMid meet">

<g transform="translate(0.000000,512.000000) scale(0.100000,-0.100000)"
fill="#000000" stroke="none">
<path d="M995 4997 c-56 -22 -76 -38 -106 -85 -70 -111 -14 -266 111 -303 l39
-12 3 -228 c3 -212 4 -230 24 -255 49 -66 123 -90 186 -60 31 15 37 15 64 1
37 -19 75 -19 119 -1 31 13 39 13 70 0 43 -18 76 -18 119 0 30 12 40 12 80 -2
43 -16 49 -16 91 -1 41 15 49 15 88 1 53 -19 106 -10 148 25 54 46 59 70 59
308 l0 215 57 0 57 0 170 -169 c136 -134 179 -171 211 -180 28 -8 365 -11
1141 -11 935 0 1103 2 1120 14 15 12 19 25 17 71 -4 115 -87 236 -201 292
l-57 28 -935 3 -934 3 -171 168 c-135 135 -178 171 -210 180 -58 16 -1319 14
-1360 -2z m1507 -284 l179 -178 952 -5 952 -5 47 -28 c48 -28 80 -64 98 -111
l10 -26 -1062 0 -1061 0 -182 180 -182 180 -612 0 -612 0 -24 25 c-34 33 -34
87 0 120 l24 25 647 0 648 0 178 -177z m-1274 -324 c-3 -185 -5 -213 -20 -222
-12 -8 -21 -7 -32 2 -14 12 -16 44 -16 222 l0 209 35 0 35 0 -2 -211z m182 2
c0 -173 -3 -211 -15 -221 -12 -10 -18 -10 -30 0 -12 10 -15 48 -15 221 l0 209
30 0 30 0 0 -209z m188 -2 c-3 -185 -5 -213 -20 -222 -12 -8 -21 -7 -32 2 -14
12 -16 44 -16 222 l0 209 35 0 35 0 -2 -211z m182 2 c0 -173 -3 -211 -15 -221
-12 -10 -18 -10 -30 0 -12 10 -15 48 -15 221 l0 209 30 0 30 0 0 -209z m188
-2 c-3 -185 -5 -213 -20 -222 -12 -8 -21 -7 -32 2 -14 12 -16 44 -16 222 l0
209 35 0 35 0 -2 -211z"/>
<path d="M838 4253 c-9 -10 -19 -36 -23 -58 -4 -21 -13 -51 -20 -65 -22 -43
-91 -98 -137 -110 -62 -17 -90 -32 -99 -56 -14 -39 11 -66 77 -84 103 -28 157
-86 184 -198 8 -30 18 -46 36 -54 34 -16 72 3 79 39 25 116 81 183 172 208 80
22 88 27 91 64 4 41 -11 59 -57 67 -48 9 -100 36 -135 70 -32 32 -65 98 -66
129 0 55 -68 87 -102 48z m87 -264 l42 -41 -44 -45 -44 -44 -44 44 -43 44 41
41 c23 23 44 42 46 42 2 0 23 -19 46 -41z"/>
<path d="M1505 3959 c-114 -42 -166 -169 -114 -277 37 -76 139 -124 218 -102
168 45 207 253 66 352 -46 32 -122 44 -170 27z m110 -134 c64 -63 -5 -161 -85
-120 -52 27 -52 106 0 132 37 19 58 16 85 -12z"/>
<path d="M635 3596 c-74 -33 -116 -119 -95 -196 35 -130 195 -168 285 -69 40
45 49 74 42 135 -12 108 -131 175 -232 130z m103 -118 c31 -31 -6 -96 -47 -83
-12 3 -26 15 -32 26 -23 43 44 92 79 57z"/>
<path d="M3223 3525 c-13 -9 -25 -32 -29 -53 -17 -94 -89 -172 -177 -192 -59
-14 -87 -34 -87 -62 0 -39 19 -56 74 -68 99 -20 158 -80 190 -192 13 -47 21
-59 42 -64 45 -12 71 9 83 67 6 29 20 67 31 85 33 53 114 104 165 104 32 0 65
33 65 63 0 30 -25 53 -70 62 -93 20 -160 82 -186 173 -15 54 -43 92 -68 92 -6
0 -21 -7 -33 -15z m75 -356 l-43 -44 -43 44 -42 45 42 43 42 43 44 -43 43 -43
-43 -45z"/>
<path d="M1160 3516 c-73 -15 -137 -54 -193 -116 -39 -43 -87 -137 -87 -169 0
-5 -18 -12 -40 -16 -61 -10 -154 -61 -195 -107 -48 -52 -87 -138 -93 -203 -3
-33 -13 -60 -29 -79 -39 -47 -93 -162 -114 -244 -43 -167 -7 -472 89 -759 27
-80 37 -122 30 -130 -24 -30 -111 -74 -174 -89 -66 -16 -104 -41 -104 -69 0
-28 37 -57 84 -66 149 -28 257 -130 295 -279 21 -84 35 -102 75 -98 30 3 31 1
39 -47 4 -27 11 -198 15 -380 9 -380 10 -385 107 -473 95 -87 222 -105 340
-48 69 35 169 141 217 231 61 117 70 159 77 375 7 185 8 198 34 246 84 163
285 203 421 83 80 -70 90 -104 97 -329 5 -175 8 -202 32 -268 36 -102 81 -175
157 -252 87 -89 141 -114 245 -115 65 0 89 5 129 24 63 31 116 84 147 147 23
48 24 57 30 369 6 264 11 339 28 432 29 155 78 310 156 498 78 187 105 265
140 402 37 146 43 218 20 243 -22 25 -57 26 -78 2 -8 -9 -25 -62 -36 -118 -32
-156 -66 -265 -141 -444 -86 -210 -114 -287 -144 -408 -49 -193 -58 -272 -65
-598 l-6 -311 -28 -42 c-46 -69 -123 -95 -212 -70 -58 16 -155 119 -198 211
-47 98 -57 154 -57 321 -1 212 -23 281 -125 383 -44 45 -76 67 -120 83 -206
78 -414 -7 -508 -208 -31 -65 -31 -70 -38 -266 -7 -210 -11 -230 -64 -335 -37
-73 -126 -165 -181 -186 -84 -32 -172 -3 -225 74 -24 35 -24 39 -30 356 -7
316 -16 418 -52 573 l-15 62 38 44 c45 51 138 103 201 113 62 9 89 28 89 64 0
38 -21 57 -72 65 -148 24 -283 154 -304 296 -16 109 -113 120 -128 14 -4 -24
-11 -47 -15 -50 -18 -10 -81 249 -102 418 -25 204 4 343 97 474 81 113 199
188 345 219 101 22 166 14 388 -45 239 -64 320 -75 490 -68 119 5 158 11 316
52 258 68 310 77 386 70 139 -13 246 -62 346 -161 56 -55 81 -88 109 -150 21
-43 44 -87 52 -96 18 -21 51 -23 77 -4 29 21 22 68 -25 163 -34 71 -59 104
-125 170 -68 67 -99 89 -176 126 -52 25 -119 51 -149 58 -63 15 -191 18 -267
6 -38 -5 -53 -4 -53 4 0 28 -64 142 -107 190 -158 175 -428 215 -624 91 l-45
-29 -53 59 c-60 67 -121 101 -206 117 -68 13 -64 13 -135 -3z m175 -133 c39
-20 93 -71 111 -105 13 -25 11 -32 -21 -95 -19 -37 -38 -85 -41 -105 -4 -21
-8 -38 -10 -38 -2 0 -46 11 -97 24 -74 19 -101 32 -132 61 -22 20 -64 48 -92
62 -29 14 -53 27 -53 29 0 19 37 85 63 112 74 77 183 99 272 55z m662 -85 c68
-25 154 -103 187 -170 40 -80 39 -82 -71 -111 -54 -15 -132 -32 -173 -38 -89
-14 -310 -6 -390 14 -52 12 -55 14 -52 42 5 48 50 131 97 179 103 106 256 138
402 84z m-1047 -202 c0 -2 -33 -14 -72 -26 -40 -12 -95 -33 -123 -47 l-50 -25
25 27 c36 40 116 75 173 75 26 0 47 -2 47 -4z m-228 -1414 c18 -29 96 -106
136 -132 22 -15 22 -15 -33 -57 -30 -24 -71 -65 -91 -93 l-36 -50 -36 49 c-21
27 -59 67 -85 89 -27 22 -49 43 -48 46 0 4 22 24 50 46 27 21 64 59 82 84 18
25 35 46 39 46 3 0 13 -13 22 -28z"/>
<path d="M2838 2446 c-25 -13 -27 -18 -53 -207 -21 -155 -60 -291 -138 -479
-84 -202 -81 -192 -56 -223 24 -31 59 -35 81 -9 17 19 124 271 156 367 69 204
115 501 84 538 -18 21 -47 26 -74 13z"/>
<path d="M2531 1421 c-11 -11 -25 -45 -32 -76 -13 -57 -13 -58 15 -81 15 -13
31 -24 35 -24 22 0 56 41 68 81 17 60 16 76 -7 99 -25 25 -54 26 -79 1z"/>
</g>
</svg>
