<?xml version="1.0" standalone="no"?>
<!DOCTYPE svg PUBLIC "-//W3C//DTD SVG 20010904//EN"
 "http://www.w3.org/TR/2001/REC-SVG-20010904/DTD/svg10.dtd">
<svg version="1.0" xmlns="http://www.w3.org/2000/svg"
 width="512.000000pt" height="512.000000pt" viewBox="0 0 512.000000 512.000000"
 preserveAspectRatio="xMidYMid meet">

<g transform="translate(0.000000,512.000000) scale(0.100000,-0.100000)"
fill="#000000" stroke="none">
<path d="M2255 4494 c-615 -27 -1125 -98 -1665 -234 -254 -64 -359 -96 -382
-117 -15 -14 -18 -32 -18 -117 0 -149 20 -255 116 -637 85 -335 88 -348 93
-491 6 -137 8 -148 30 -172 l24 -26 2107 0 2107 0 24 26 c22 23 24 35 30 172
5 143 8 157 93 491 96 382 116 488 116 637 0 122 -2 125 -122 160 -497 147
-1117 256 -1668 294 -160 11 -743 20 -885 14z m880 -174 c530 -39 1032 -124
1525 -258 l105 -29 3 -38 c7 -79 -24 -243 -99 -528 l-10 -37 -55 60 c-38 40
-78 70 -122 92 -62 31 -73 33 -172 33 -97 0 -110 -2 -171 -31 -36 -18 -87 -52
-113 -76 l-46 -45 -46 45 c-26 24 -77 58 -113 76 -61 29 -74 31 -171 31 -93 0
-112 -3 -161 -26 -31 -15 -75 -43 -97 -63 l-40 -37 -31 44 c-60 88 -169 163
-272 186 -160 37 -345 -21 -451 -142 l-36 -42 -46 48 c-145 151 -359 190 -543
100 -67 -33 -133 -90 -174 -150 l-31 -44 -40 37 c-22 20 -66 48 -97 62 -49 23
-69 27 -161 27 -97 0 -110 -2 -171 -31 -36 -18 -87 -52 -113 -76 l-46 -45 -46
45 c-26 24 -77 58 -113 76 -61 29 -74 31 -171 31 -99 0 -110 -2 -172 -33 -44
-22 -84 -52 -122 -92 l-55 -60 -10 37 c-72 272 -101 423 -101 518 l0 44 68 20
c492 146 1154 253 1746 281 207 10 778 4 971 -10z m-828 -778 c65 -34 110 -78
140 -140 28 -57 28 -57 31 -299 l3 -243 -301 0 -301 0 3 253 c3 237 4 254 25
293 29 54 112 128 166 148 60 22 179 16 234 -12z m736 12 c57 -19 140 -92 170
-148 21 -39 22 -56 25 -293 l3 -253 -300 0 -301 0 0 223 c0 247 7 293 60 365
75 104 219 148 343 106z m-2152 -106 c51 -15 114 -69 142 -122 20 -38 22 -57
25 -253 l3 -213 -251 0 -252 0 4 208 c3 175 7 212 22 242 65 125 179 177 307
138z m705 -24 c62 -38 109 -112 117 -186 4 -29 7 -126 7 -215 l0 -163 -251 0
-250 0 3 213 c3 240 10 264 87 328 54 46 95 59 172 56 54 -2 76 -8 115 -33z
m2135 24 c51 -15 114 -69 142 -122 20 -38 22 -57 25 -253 l3 -213 -251 0 -252
0 4 208 c3 175 7 212 22 242 65 125 179 177 307 138z m705 -24 c62 -38 109
-112 117 -186 4 -29 7 -126 7 -215 l0 -163 -251 0 -250 0 3 213 c3 240 10 264
87 328 54 46 95 59 172 56 54 -2 76 -8 115 -33z"/>
<path d="M548 2406 c-29 -21 -38 -63 -38 -170 l0 -103 -106 -249 c-165 -386
-200 -514 -211 -754 -7 -164 -11 -158 138 -201 522 -151 1085 -249 1664 -290
219 -16 911 -16 1130 0 578 41 1125 136 1665 290 144 41 144 40 137 206 -11
234 -49 369 -211 749 l-106 249 0 103 c0 107 -9 149 -38 170 -25 20 -3999 20
-4024 0z m620 -358 c-3 -241 -9 -263 -88 -330 -137 -118 -361 -44 -399 132 -6
28 -11 132 -11 230 l0 180 251 0 250 0 -3 -212z m650 -6 l-3 -219 -30 -49
c-57 -91 -172 -134 -281 -105 -55 15 -122 75 -150 135 -23 48 -24 62 -24 254
l0 202 246 0 245 0 -3 -218z m660 6 c-3 -197 -5 -216 -25 -254 -91 -170 -331
-179 -429 -16 -38 63 -44 106 -44 320 l0 162 251 0 250 0 -3 -212z m662 50 c0
-214 -6 -257 -44 -320 -98 -163 -338 -154 -429 16 -20 38 -22 57 -25 254 l-3
212 250 0 251 0 0 -162z m650 -40 c0 -192 -1 -206 -24 -254 -28 -60 -95 -120
-150 -135 -109 -29 -224 14 -281 105 l-30 49 -3 219 -3 218 245 0 246 0 0
-202z m658 -5 c-3 -204 -4 -209 -31 -260 -93 -178 -345 -177 -440 1 -20 38
-22 57 -25 254 l-3 212 251 0 252 0 -4 -207z m-3810 -436 c26 -26 76 -62 112
-80 60 -30 72 -32 170 -32 97 0 110 2 172 32 37 17 87 52 112 76 l45 45 47
-45 c158 -152 416 -149 568 6 l40 41 53 -51 c29 -27 79 -62 110 -77 51 -24 70
-27 163 -27 97 0 110 2 171 31 36 18 87 52 113 76 l46 45 46 -45 c26 -24 77
-58 113 -76 61 -29 74 -31 171 -31 98 0 110 2 170 32 36 18 85 52 109 77 l44
45 58 -54 c83 -76 146 -99 275 -100 96 0 103 2 176 37 44 22 91 55 112 78 l36
40 45 -46 c25 -25 76 -60 113 -77 62 -30 75 -32 172 -32 98 0 110 2 170 32 76
37 147 106 189 182 l30 55 26 -59 c88 -200 144 -406 148 -546 l2 -82 -50 -14
c-457 -123 -876 -204 -1295 -247 -608 -64 -1294 -57 -1895 19 -350 45 -814
140 -1109 226 l-69 21 7 82 c13 156 67 350 151 541 l26 59 30 -55 c16 -30 51
-76 77 -102z"/>
</g>
</svg>
