<?xml version="1.0" standalone="no"?>
<!DOCTYPE svg PUBLIC "-//W3C//DTD SVG 20010904//EN"
 "http://www.w3.org/TR/2001/REC-SVG-20010904/DTD/svg10.dtd">
<svg version="1.0" xmlns="http://www.w3.org/2000/svg"
 width="512.000000pt" height="512.000000pt" viewBox="0 0 512.000000 512.000000"
 preserveAspectRatio="xMidYMid meet">

<g transform="translate(0.000000,512.000000) scale(0.100000,-0.100000)"
fill="#000000" stroke="none">
<path d="M640 5089 c-118 -23 -229 -112 -283 -227 -29 -62 -32 -75 -32 -168 0
-99 1 -104 40 -180 l40 -79 -18 -70 c-35 -135 -4 -302 76 -414 l36 -50 0 -169
c0 -94 5 -210 11 -259 35 -282 140 -624 276 -895 l33 -66 -39 -36 c-52 -47
-89 -65 -158 -77 -99 -17 -103 -19 -116 -50 -29 -68 3 -106 99 -120 155 -22
255 -123 274 -276 6 -51 13 -71 31 -85 53 -43 130 -7 130 63 1 52 15 20 55
-128 77 -281 116 -529 160 -1010 35 -393 61 -510 135 -618 74 -108 169 -150
340 -150 103 0 121 3 170 26 169 81 286 257 373 564 41 147 64 255 117 560 72
417 105 547 150 605 l20 25 20 -25 c45 -57 80 -197 150 -605 82 -479 134 -669
230 -853 55 -105 119 -183 191 -231 77 -52 143 -71 239 -71 198 0 329 87 394
262 38 101 53 199 86 560 30 323 53 507 86 673 23 122 22 119 42 95 9 -11 31
-23 49 -26 27 -5 37 -1 63 24 23 24 30 39 30 71 0 140 124 270 275 287 74 9
105 33 105 83 0 51 -26 72 -101 83 -34 4 -80 16 -103 27 -50 21 -113 74 -121
101 -4 13 31 97 103 247 60 125 122 260 137 298 125 316 185 609 185 898 l0
159 50 45 c73 66 122 169 128 272 2 44 -1 101 -8 129 l-11 50 45 62 c190 258
47 616 -268 671 -111 19 -242 -16 -336 -91 l-39 -31 -59 16 c-33 8 -77 15 -97
15 -21 0 -78 16 -128 36 -138 55 -242 70 -407 56 -213 -18 -303 -45 -525 -158
-238 -121 -260 -128 -405 -128 -145 0 -167 7 -405 128 -219 112 -310 140 -518
158 -206 18 -370 -17 -527 -111 l-65 -39 -46 43 c-99 92 -228 130 -359 104z
m187 -177 c84 -43 131 -119 137 -219 5 -80 10 -88 72 -117 74 -35 144 -103
180 -173 26 -53 29 -67 29 -158 0 -89 -3 -106 -28 -156 -30 -62 -103 -136
-164 -168 -22 -11 -70 -25 -106 -32 -169 -31 -344 78 -397 248 -26 86 -25 139
5 229 14 41 25 85 25 98 0 13 -17 45 -39 71 -66 79 -79 171 -37 261 57 122
206 175 323 116z m826 18 c173 -17 273 -51 475 -161 70 -38 151 -77 180 -86
29 -9 49 -20 45 -24 -11 -10 -136 -38 -221 -49 -41 -6 -82 -15 -92 -20 -28
-15 -40 -61 -25 -97 21 -50 66 -56 225 -27 220 39 499 148 708 276 114 70 233
126 325 152 103 30 295 51 383 41 l61 -6 -72 -72 c-40 -40 -84 -96 -99 -124
-99 -197 -64 -432 89 -587 86 -87 172 -129 305 -147 74 -11 75 -11 128 -70 39
-42 74 -69 129 -96 71 -35 81 -37 171 -38 l95 0 -6 -165 c-8 -249 -57 -474
-164 -745 -43 -108 -162 -365 -178 -383 -1 -1 -14 2 -29 8 -20 7 -36 6 -61 -4
-35 -15 -40 -24 -50 -101 -19 -141 -130 -255 -263 -271 -91 -11 -122 -33 -122
-87 0 -45 30 -69 101 -79 63 -8 157 -46 177 -71 8 -9 4 -40 -13 -107 -69 -268
-104 -493 -140 -892 -14 -155 -32 -328 -40 -383 -39 -254 -108 -335 -286 -335
-90 0 -157 34 -221 114 -120 150 -190 379 -283 926 -79 466 -116 591 -199 676
-40 40 -60 53 -92 59 -67 11 -116 -9 -167 -65 -77 -86 -116 -220 -192 -670
-96 -565 -177 -819 -305 -950 -62 -64 -101 -82 -185 -88 -175 -11 -254 67
-295 293 -6 33 -24 203 -40 377 -32 347 -57 537 -96 726 -31 150 -95 387 -134
495 -23 63 -27 83 -18 94 22 27 87 53 155 63 54 7 73 14 91 35 51 60 18 110
-86 130 -166 32 -250 114 -277 272 -10 57 -19 82 -35 95 -30 24 -75 23 -101
-3 -11 -11 -22 -19 -24 -17 -1 2 -28 66 -58 143 -78 199 -129 390 -156 590
-11 78 -17 282 -9 291 3 3 32 -4 65 -15 89 -30 175 -36 263 -17 195 41 332
163 396 352 23 71 26 90 21 179 -8 166 -74 297 -198 388 -35 26 -70 52 -76 58
-7 5 -13 27 -13 48 0 35 4 42 48 69 103 67 234 109 342 111 25 0 89 -4 143 -9z
m2942 -14 c50 -21 106 -77 131 -131 51 -109 21 -234 -74 -314 -28 -24 -52 -53
-54 -65 -2 -11 7 -50 20 -86 55 -149 1 -284 -137 -348 -119 -55 -270 0 -332
120 -28 56 -52 66 -144 66 -109 -1 -182 27 -250 96 -77 77 -99 132 -100 241 0
77 4 98 26 146 76 161 261 239 424 179 33 -12 77 -24 97 -27 34 -5 40 -1 90
51 52 53 78 69 143 87 37 10 118 2 160 -15z m-3573 -2544 l57 -58 -58 -60 -58
-60 -59 59 -60 60 56 57 c30 32 57 58 60 59 3 0 31 -26 62 -57z m3155 -318 c2
0 -24 -28 -58 -62 l-61 -61 -59 58 -59 59 58 60 57 59 60 -56 c33 -31 61 -56
62 -57z"/>
<path d="M2847 3930 c-20 -16 -27 -32 -32 -78 -9 -79 -56 -173 -109 -217 -54
-44 -99 -63 -172 -71 -68 -8 -104 -37 -104 -82 0 -50 27 -72 103 -82 87 -13
154 -47 205 -105 39 -45 72 -117 72 -159 0 -53 21 -98 52 -111 64 -26 118 22
118 107 0 18 13 60 28 93 48 100 133 160 249 174 74 9 103 32 103 81 0 49 -27
70 -113 85 -155 27 -247 121 -268 274 -7 51 -15 71 -35 89 -31 27 -63 28 -97
2z m109 -505 l-60 -60 -60 59 -61 59 60 58 60 58 60 -57 60 -57 -59 -60z"/>
</g>
</svg>
