<svg xmlns="http://www.w3.org/2000/svg" width="159.429mm" height="93.1192mm" version="1.1" viewBox="0 0 15942.94 9311.92">
 <defs>
  <style type="text/css">
   <![CDATA[
    .fil0 {fill:#fff}
   ]]>
  </style>
 </defs>
  <g id="_2214811396432">
   <path class="fil0" d="M3302.93 4533.23c135.53,-79.79 52.19,-220.18 258.99,-636.97 131.13,-264.27 185.43,-309.87 371.74,-524.22 159.26,-183.23 235.6,-306.28 433.43,-462.54 582.47,-460.05 1196.23,-697.3 1942.32,-745.55 501.54,-32.43 1055.83,-23.19 1493.7,258.33 435.95,280.28 517.45,839.05 395.1,1311.9 -68.29,263.93 -513.45,516.64 -707.06,1084.86 -125.49,368.25 -16.63,593.52 -803.26,988.66 -235.86,118.48 -431.51,172.69 -693.71,202.25 -171.7,19.37 -720.44,72.62 -821.13,-64.54 -32.66,-128.67 415.3,-214.64 721.3,-632.59 182.97,-249.9 367.29,-579.41 489.21,-864.7 137.06,-320.74 249.59,-640.8 389.31,-964.58 67.67,-156.84 126.34,-318.21 200.26,-476.68 77.15,-165.42 192.13,-321.52 192.38,-504.47 -299.13,-85.46 -768.06,300.17 -970.61,502.74 -754.26,754.35 -957.22,2294.46 -1384.76,2796.39 -70.37,82.62 -163.15,116.62 -142.79,231.7 161.48,109.83 1495.5,91.44 1747.89,59.32 282.56,-35.97 506.51,-88.78 782.45,-153.36 518.42,-121.34 480.65,226.03 669.64,175.28 91.34,-136.67 -55.59,-174.85 -61.91,-309.83 -5.07,-108.35 122.09,-176.82 202.16,-250.13 185.66,-169.99 300.9,-239.41 476.61,-439.27 967.04,-1099.91 208.64,-1391.24 1057.97,-1669.73 664.56,-217.91 1691.03,-363.09 2322.84,-27.92 948.16,502.98 446.29,1871.79 -24.63,2545.13 -434.07,620.67 -870.29,992.23 -1650.59,1097.02 -190.47,25.58 -659.24,53.01 -814.23,-57.64 66.64,-209.24 447.76,-217.12 731.39,-622.5 481.92,-688.78 700,-1622.81 1067.15,-2357.4 58.08,-116.19 227.1,-369.69 176.63,-488.44 -212.42,-91.57 -790.9,382.83 -944.84,536.54 -558.81,557.97 -717.51,1267.44 -1010.2,2016.16 -85.78,219.41 -225.44,591.07 -360.06,774.82 -85.89,117.24 -134.87,66.2 -157.83,220.47 251.57,117.62 992.22,101.68 1295.27,100.86 2725.67,-7.41 3735.4,-2557.15 2560.12,-3498.32 -766.97,-614.2 -1954.2,-634.45 -2893.35,-498.6 -754.79,109.17 -646.88,229.18 -969.86,-237.45 -534.34,-772.01 -1464.44,-853.48 -2268.51,-901.62 -118.79,-7.12 -216.55,16.73 -333.26,18.22 -2754.85,35.27 -3378.06,2063.76 -2965.27,2468.4z"/>
   <path class="fil0" d="M256.67 4632.78c-9.87,-714.5 404.07,-1598.07 909.35,-2097.09 564.28,-557.28 1061.82,-901.14 1771.2,-1255.15 2798,-1396.31 7189.6,-1339.53 10002.76,46.65 1310.54,645.77 2695.8,1731.86 2726.1,3329.3 29.07,1532.5 -1423.21,2738.48 -2686.32,3341.58 -1537.99,734.35 -3321.77,1038.99 -5017.17,1035.58 -1590,-3.2 -3560.44,-327.72 -4983.35,-1070.74 -594.85,-310.62 -1328.29,-746.91 -1777.05,-1249.3 -514.62,-576.09 -934.51,-1283.85 -945.52,-2080.83zm7068.13 -4619.17c-1657.09,79.18 -3573.84,426.22 -5011.31,1300.24 -1382.41,840.54 -2668.47,2141.26 -2235.13,3916.55 376.72,1543.33 1784.39,2537.42 3158.56,3151.78 1636.97,731.87 3594.21,983.72 5373.84,921.06 1678.5,-59.09 3519.38,-483.43 4981.8,-1329.5 1380.55,-798.69 2666.18,-2189.87 2270.62,-3916.43 -360.66,-1574.17 -1794.68,-2513.22 -3166.19,-3144.17 -1521.95,-700.17 -3713.92,-978.77 -5372.19,-899.53z"/>
  </g>
</svg>
